<svg width="251" height="49" viewBox="0 0 251 49" fill="none" xmlns="http://www.w3.org/2000/svg">
<path d="M20.704 30.048C20.448 30.2613 19.968 30.5493 19.264 30.912C18.5813 31.2747 17.7387 31.5947 16.736 31.872C15.7333 32.1493 14.624 32.2773 13.408 32.256C11.552 32.2133 9.888 31.8827 8.416 31.264C6.96533 30.624 5.728 29.76 4.704 28.672C3.70133 27.584 2.93333 26.336 2.4 24.928C1.86667 23.52 1.6 22.016 1.6 20.416C1.6 18.624 1.86667 16.9813 2.4 15.488C2.95467 13.9947 3.73333 12.704 4.736 11.616C5.76 10.528 6.976 9.68533 8.384 9.088C9.792 8.49067 11.3493 8.192 13.056 8.192C14.6347 8.192 16.032 8.40533 17.248 8.832C18.464 9.25867 19.456 9.71733 20.224 10.208L18.4 14.592C17.8667 14.1867 17.152 13.7707 16.256 13.344C15.3813 12.896 14.368 12.672 13.216 12.672C12.32 12.672 11.456 12.864 10.624 13.248C9.81333 13.6107 9.088 14.1333 8.448 14.816C7.82933 15.4987 7.33867 16.2987 6.976 17.216C6.61333 18.112 6.432 19.0933 6.432 20.16C6.432 21.2907 6.592 22.3253 6.912 23.264C7.25333 24.2027 7.73333 25.0133 8.352 25.696C8.97067 26.3573 9.70667 26.8693 10.56 27.232C11.4347 27.5947 12.416 27.776 13.504 27.776C14.7627 27.776 15.84 27.5733 16.736 27.168C17.632 26.7627 18.3147 26.336 18.784 25.888L20.704 30.048ZM23.9125 20.256C23.9125 18.6347 24.2218 17.0987 24.8405 15.648C25.4592 14.1973 26.3125 12.9173 27.4005 11.808C28.5098 10.6773 29.7898 9.792 31.2405 9.152C32.6912 8.512 34.2485 8.192 35.9125 8.192C37.5552 8.192 39.1018 8.512 40.5525 9.152C42.0032 9.792 43.2832 10.6773 44.3925 11.808C45.5232 12.9173 46.3978 14.1973 47.0165 15.648C47.6565 17.0987 47.9765 18.6347 47.9765 20.256C47.9765 21.92 47.6565 23.4773 47.0165 24.928C46.3978 26.3787 45.5232 27.6587 44.3925 28.768C43.2832 29.856 42.0032 30.7093 40.5525 31.328C39.1018 31.9467 37.5552 32.256 35.9125 32.256C34.2485 32.256 32.6912 31.9467 31.2405 31.328C29.7898 30.7093 28.5098 29.856 27.4005 28.768C26.3125 27.6587 25.4592 26.3787 24.8405 24.928C24.2218 23.4773 23.9125 21.92 23.9125 20.256ZM28.7125 20.256C28.7125 21.3013 28.8938 22.2827 29.2565 23.2C29.6405 24.096 30.1632 24.896 30.8245 25.6C31.5072 26.2827 32.2858 26.816 33.1605 27.2C34.0565 27.584 35.0272 27.776 36.0725 27.776C37.0752 27.776 38.0032 27.584 38.8565 27.2C39.7312 26.816 40.4885 26.2827 41.1285 25.6C41.7685 24.896 42.2698 24.096 42.6325 23.2C42.9952 22.2827 43.1765 21.3013 43.1765 20.256C43.1765 19.1893 42.9845 18.1973 42.6005 17.28C42.2378 16.3627 41.7258 15.5627 41.0645 14.88C40.4245 14.176 39.6672 13.632 38.7925 13.248C37.9178 12.864 36.9685 12.672 35.9445 12.672C34.9205 12.672 33.9712 12.864 33.0965 13.248C32.2218 13.632 31.4538 14.176 30.7925 14.88C30.1312 15.5627 29.6192 16.3627 29.2565 17.28C28.8938 18.1973 28.7125 19.1893 28.7125 20.256ZM52.6025 32V8.448H59.6425C62.0105 8.448 64.0265 8.8 65.6905 9.504C67.3545 10.208 68.6878 11.1467 69.6905 12.32C70.7145 13.4933 71.4612 14.8053 71.9305 16.256C72.3998 17.7067 72.6345 19.168 72.6345 20.64C72.6345 22.3893 72.3145 23.968 71.6745 25.376C71.0558 26.7627 70.2025 27.9573 69.1145 28.96C68.0265 29.9413 66.7678 30.6987 65.3385 31.232C63.9092 31.744 62.3945 32 60.7945 32H52.6025ZM57.2425 27.52H59.9945C61.1678 27.52 62.2345 27.3707 63.1945 27.072C64.1545 26.752 64.9758 26.2933 65.6585 25.696C66.3625 25.0987 66.8958 24.352 67.2585 23.456C67.6425 22.5387 67.8345 21.4933 67.8345 20.32C67.8345 18.784 67.5785 17.536 67.0665 16.576C66.5758 15.5947 65.9572 14.8373 65.2105 14.304C64.4852 13.7707 63.7385 13.408 62.9705 13.216C62.2025 13.0027 61.5518 12.896 61.0185 12.896H57.2425V27.52ZM77.29 8.448H93.354V12.928H81.93V17.952H92.042V22.432H81.93V27.52H93.802V32H77.29V8.448ZM98.6025 8.448H103.243V27.52H114.315V32H98.6025V8.448ZM116.447 32L127.071 7.52H127.327L137.951 32H132.575L125.791 14.784L129.151 12.48L121.023 32H116.447ZM123.711 23.488H130.783L132.415 27.392H122.271L123.711 23.488ZM128.895 5.888L126.399 3.52L127.487 3.2L124.959 5.888H120.927L126.847 0H126.879L132.927 5.888H128.895ZM162.472 32.96L144.616 16.832L145.992 17.6L146.088 32H141.384V7.52H141.576L159.048 23.584L158.024 23.136L157.928 8.448H162.6V32.96H162.472ZM220.696 8.448H225.336V32H220.696V8.448ZM228.759 32L239.383 7.52H239.639L250.263 32H244.887L238.103 14.784L241.463 12.48L233.335 32H228.759ZM236.023 23.488H243.095L244.727 27.392H234.583L236.023 23.488Z" fill="#F9F9F9"/>
<path d="M185.048 9.552C184.6 9.552 184.248 9.616 183.992 9.744C183.757 9.872 183.587 10.16 183.48 10.608C183.395 11.056 183.352 11.7707 183.352 12.752V15.888C183.352 16.6987 183.224 17.4027 182.968 18C182.733 18.576 182.456 19.0453 182.136 19.408C181.816 19.7707 181.517 20.048 181.24 20.24C181.475 20.4107 181.752 20.6773 182.072 21.04C182.413 21.3813 182.712 21.808 182.968 22.32C183.224 22.8107 183.352 23.3653 183.352 23.984V27.824C183.352 28.784 183.395 29.488 183.48 29.936C183.587 30.384 183.757 30.672 183.992 30.8C184.248 30.928 184.6 30.992 185.048 30.992H186.232V34.896H183.704C183.107 34.896 182.509 34.8853 181.912 34.864C181.336 34.8427 180.803 34.7253 180.312 34.512C179.821 34.32 179.427 33.9467 179.128 33.392C178.851 32.8587 178.712 32.08 178.712 31.056V25.776C178.712 25.136 178.616 24.5387 178.424 23.984C178.232 23.408 177.944 22.9387 177.56 22.576C177.176 22.2133 176.696 22.032 176.12 22.032V18.32C176.696 18.2987 177.176 18.1173 177.56 17.776C177.944 17.4133 178.232 16.9547 178.424 16.4C178.616 15.824 178.712 15.216 178.712 14.576V9.52C178.712 8.496 178.851 7.71733 179.128 7.184C179.405 6.65067 179.779 6.27733 180.248 6.064C180.739 5.85067 181.283 5.73333 181.88 5.712C182.477 5.66933 183.085 5.648 183.704 5.648H186.232V9.552H185.048ZM208.906 20.528C208.906 22.704 208.639 24.7413 208.106 26.64C207.594 28.5387 206.933 30.224 206.122 31.696C205.311 33.1893 204.447 34.416 203.53 35.376L199.85 33.68C200.682 32.72 201.429 31.5893 202.09 30.288C202.751 29.008 203.274 27.5573 203.658 25.936C204.042 24.2933 204.234 22.4907 204.234 20.528C204.234 18.5653 204.042 16.7733 203.658 15.152C203.274 13.5093 202.751 12.048 202.09 10.768C201.429 9.46667 200.682 8.34667 199.85 7.408L203.53 5.68C204.447 6.64 205.311 7.86667 206.122 9.36C206.933 10.8533 207.594 12.5493 208.106 14.448C208.639 16.3253 208.906 18.352 208.906 20.528Z" fill="#873EFF"/>
</svg>
