<svg width="33" height="31" viewBox="0 0 33 31" fill="none" xmlns="http://www.w3.org/2000/svg">
<path d="M9.048 4.552C8.6 4.552 8.248 4.616 7.992 4.744C7.75733 4.872 7.58667 5.16 7.48 5.608C7.39467 6.056 7.352 6.77067 7.352 7.752V10.888C7.352 11.6987 7.224 12.4027 6.968 13C6.73333 13.576 6.456 14.0453 6.136 14.408C5.816 14.7707 5.51733 15.048 5.24 15.24C5.47467 15.4107 5.752 15.6773 6.072 16.04C6.41333 16.3813 6.712 16.808 6.968 17.32C7.224 17.8107 7.352 18.3653 7.352 18.984V22.824C7.352 23.784 7.39467 24.488 7.48 24.936C7.58667 25.384 7.75733 25.672 7.992 25.8C8.248 25.928 8.6 25.992 9.048 25.992H10.232V29.896H7.704C7.10667 29.896 6.50933 29.8853 5.912 29.864C5.336 29.8427 4.80267 29.7253 4.312 29.512C3.82133 29.32 3.42667 28.9467 3.128 28.392C2.85067 27.8587 2.712 27.08 2.712 26.056V20.776C2.712 20.136 2.616 19.5387 2.424 18.984C2.232 18.408 1.944 17.9387 1.56 17.576C1.176 17.2133 0.696 17.032 0.12 17.032V13.32C0.696 13.2987 1.176 13.1173 1.56 12.776C1.944 12.4133 2.232 11.9547 2.424 11.4C2.616 10.824 2.712 10.216 2.712 9.576V4.52C2.712 3.496 2.85067 2.71733 3.128 2.184C3.40533 1.65067 3.77867 1.27733 4.248 1.064C4.73867 0.850666 5.28267 0.733332 5.88 0.711998C6.47733 0.669332 7.08533 0.647999 7.704 0.647999H10.232V4.552H9.048ZM32.906 15.528C32.906 17.704 32.6393 19.7413 32.106 21.64C31.594 23.5387 30.9327 25.224 30.122 26.696C29.3113 28.1893 28.4473 29.416 27.53 30.376L23.85 28.68C24.682 27.72 25.4287 26.5893 26.09 25.288C26.7513 24.008 27.274 22.5573 27.658 20.936C28.042 19.2933 28.234 17.4907 28.234 15.528C28.234 13.5653 28.042 11.7733 27.658 10.152C27.274 8.50933 26.7513 7.048 26.09 5.768C25.4287 4.46667 24.682 3.34667 23.85 2.408L27.53 0.679998C28.4473 1.64 29.3113 2.86667 30.122 4.36C30.9327 5.85333 31.594 7.54933 32.106 9.448C32.6393 11.3253 32.906 13.352 32.906 15.528Z" fill="#873EFF"/>
</svg>
