<svg width="580" height="564" viewBox="0 0 580 564" fill="none" xmlns="http://www.w3.org/2000/svg">
<g opacity="0.5" filter="url(#filter0_f_5867_55)">
<ellipse cx="174.559" cy="474.786" rx="54.6332" ry="4.05678" fill="url(#paint0_linear_5867_55)"/>
</g>
<path d="M79.1044 205.54C77.9497 152.566 120.577 109 173.563 109C226.594 109 269.239 152.637 268.019 205.654L263.999 380.357C263.422 405.428 246.612 427.213 222.506 434.129L203.273 439.646C202.739 439.8 202.472 439.876 202.209 439.95C183.389 445.245 163.474 445.245 144.654 439.95C144.391 439.876 144.124 439.8 143.59 439.646L124.443 434.153C100.292 427.225 83.4606 405.385 82.9131 380.266L79.1044 205.54Z" fill="url(#paint1_linear_5867_55)"/>
<path opacity="0.6" d="M173.463 261.363C173.496 177.205 269.857 123.796 267.921 207.93L263.959 380.107C263.61 395.283 263.435 402.871 260.775 409.223C258.414 414.859 254.679 419.78 249.927 423.514C244.571 427.722 237.431 429.77 223.151 433.866L197.587 441.199C185.566 444.647 179.555 446.372 173.392 446.372L173.463 261.363Z" fill="url(#paint2_linear_5867_55)"/>
<g filter="url(#filter1_d_5867_55)">
<g filter="url(#filter2_ii_5867_55)">
<path d="M107.044 197.402C106.109 169.905 123.782 145.217 150.112 137.238L152.426 136.537C166.246 132.35 180.997 132.35 194.817 136.537L197.012 137.203C223.401 145.199 241.095 169.966 240.107 197.522L238.96 229.496C237.696 264.71 208.783 292.604 173.547 292.604C138.263 292.604 109.329 264.636 108.13 229.373L107.044 197.402Z" fill="url(#paint3_linear_5867_55)"/>
</g>
<g opacity="0.2" filter="url(#filter3_f_5867_55)">
<path d="M134.173 262.646C133.525 256.356 138.11 250.735 144.402 250.106L169.681 247.579C172.454 247.302 175.248 247.302 178.02 247.579L203.216 250.098C209.543 250.73 214.142 256.401 213.455 262.723C212.429 272.15 204.469 279.293 194.986 279.293H152.623C143.115 279.293 135.148 272.103 134.173 262.646Z" fill="url(#paint4_linear_5867_55)"/>
</g>
</g>
<g filter="url(#filter4_dd_5867_55)">
<path d="M179.772 268.567C179.772 270.06 177.199 271.271 174.025 271.271C170.851 271.271 168.278 270.06 168.278 268.567C168.278 267.073 170.851 265.862 174.025 265.862C177.199 265.862 179.772 267.073 179.772 268.567Z" fill="url(#paint5_linear_5867_55)"/>
</g>
<g filter="url(#filter5_dd_5867_55)">
<circle cx="135.753" cy="202.179" r="16.0653" fill="url(#paint6_linear_5867_55)"/>
</g>
<ellipse cx="135.753" cy="225.818" rx="7.34414" ry="3.90158" fill="url(#paint7_linear_5867_55)"/>
<path d="M132.146 161.749C133.179 156.95 137.422 153.524 142.331 153.524C143.008 153.524 143.556 154.073 143.556 154.75V176.182C143.556 180.146 140.343 183.359 136.379 183.359C131.806 183.359 128.4 179.141 129.362 174.671L132.146 161.749Z" fill="url(#paint8_linear_5867_55)"/>
<path d="M131.514 257.285C132.37 262.562 136.927 266.44 142.274 266.44C142.982 266.44 143.556 265.866 143.556 265.158V239.859C143.556 235.78 140.25 232.473 136.171 232.473C131.62 232.473 128.152 236.549 128.88 241.041L131.514 257.285Z" fill="url(#paint9_linear_5867_55)"/>
<g filter="url(#filter6_dd_5867_55)">
<circle r="16.0653" transform="matrix(-1 0 0 1 210.571 202.179)" fill="url(#paint10_linear_5867_55)"/>
</g>
<ellipse rx="7.34414" ry="3.90158" transform="matrix(-1 0 0 1 210.571 225.818)" fill="url(#paint11_linear_5867_55)"/>
<path d="M214.179 161.749C213.145 156.95 208.903 153.524 203.994 153.524C203.317 153.524 202.768 154.073 202.768 154.75V176.182C202.768 180.146 205.982 183.359 209.946 183.359C214.518 183.359 217.925 179.141 216.962 174.671L214.179 161.749Z" fill="url(#paint12_linear_5867_55)"/>
<path d="M214.81 257.285C213.954 262.562 209.397 266.44 204.051 266.44C203.342 266.44 202.768 265.866 202.768 265.158V239.859C202.768 235.78 206.075 232.473 210.154 232.473C214.705 232.473 218.173 236.549 217.444 241.041L214.81 257.285Z" fill="url(#paint13_linear_5867_55)"/>
<path d="M274.719 302.585C301.025 302.585 297.81 278.805 297.81 278.805H329.67C329.67 298.758 321.122 325.568 278.227 321.718C258.911 319.985 250.519 306.656 250.845 292.132C250.908 289.33 253.342 287.279 256.145 287.279C257.726 287.279 259.063 288.482 259.468 290.01C260.636 294.411 264.218 302.585 274.719 302.585Z" fill="url(#paint14_linear_5867_55)"/>
<path d="M281.403 190.99C280.411 146.134 317.465 111.267 362.333 111.267C403.547 111.267 438.914 140.778 449.977 180.48C460.68 218.892 476.935 267.998 499.66 313.618C521.39 357.24 495.752 427.823 447.395 433.875L408.558 438.736C392.756 440.713 376.711 438.545 362 432.444L349.826 427.395C339.841 423.253 330.704 417.053 324.89 407.939C291.511 355.616 282.921 259.62 281.403 190.99Z" fill="url(#paint15_linear_5867_55)"/>
<g opacity="0.5" filter="url(#filter7_f_5867_55)">
<ellipse cx="438.392" cy="474.786" rx="55.7807" ry="4.05678" fill="url(#paint16_linear_5867_55)"/>
</g>
<path d="M358.259 320.945C384.565 320.945 381.35 297.166 381.35 297.166H413.21C413.21 317.119 404.662 343.929 361.767 340.079C342.451 338.345 334.059 325.016 334.385 310.492C334.448 307.69 336.882 305.639 339.685 305.639C341.266 305.639 342.603 306.842 343.008 308.37C344.176 312.772 347.758 320.945 358.259 320.945Z" fill="url(#paint17_linear_5867_55)"/>
<g filter="url(#filter8_d_5867_55)">
<g filter="url(#filter9_ii_5867_55)">
<path d="M292.217 192.394C291.047 173.777 299.067 155.768 313.687 144.184C332.651 129.157 358.368 125.845 380.52 135.577L382.56 136.473C407.066 147.239 421.516 172.895 418.02 199.432L412.809 238.981C408.924 268.468 383.787 290.51 354.046 290.51C322.754 290.51 296.853 266.186 294.891 234.956L292.217 192.394Z" fill="url(#paint18_linear_5867_55)"/>
</g>
<g opacity="0.12" filter="url(#filter10_f_5867_55)">
<path d="M295.666 243.235C294.998 233.782 301.734 225.414 311.112 224.048L331.849 221.027C336.29 220.381 340.801 220.381 345.241 221.027L365.893 224.035C375.31 225.407 382.061 233.828 381.353 243.317C380.207 258.67 367.415 270.543 352.018 270.543H324.973C309.551 270.543 296.754 258.619 295.666 243.235Z" fill="url(#paint19_linear_5867_55)"/>
</g>
<g filter="url(#filter11_dd_5867_55)">
<rect x="329.365" y="243.921" width="9.18018" height="22.9504" rx="4.59009" fill="url(#paint20_linear_5867_55)"/>
</g>
</g>
<g filter="url(#filter12_dd_5867_55)">
<ellipse cx="311.464" cy="201.921" rx="14.2293" ry="13.9998" fill="url(#paint21_linear_5867_55)"/>
</g>
<ellipse cx="311.464" cy="222.577" rx="6.42613" ry="3.44257" fill="url(#paint22_linear_5867_55)"/>
<path d="M308.228 166.284C309.152 162.035 312.913 159.004 317.262 159.004C317.862 159.004 318.349 159.491 318.349 160.092V178.818C318.349 182.325 315.506 185.168 312 185.168C307.949 185.168 304.934 181.426 305.795 177.468L308.228 166.284Z" fill="url(#paint23_linear_5867_55)"/>
<path d="M307.673 250.503C308.437 255.177 312.476 258.609 317.212 258.609C317.84 258.609 318.349 258.1 318.349 257.472V235.31C318.349 231.7 315.423 228.774 311.812 228.774C307.781 228.774 304.711 232.387 305.361 236.365L307.673 250.503Z" fill="url(#paint24_linear_5867_55)"/>
<g filter="url(#filter13_dd_5867_55)">
<circle r="15.346" transform="matrix(-1 -8.74228e-08 -8.74228e-08 1 366.933 202.233)" fill="url(#paint25_linear_5867_55)"/>
</g>
<ellipse rx="7.0153" ry="3.72688" transform="matrix(-1 -8.74228e-08 -8.74228e-08 1 366.932 224.813)" fill="url(#paint26_linear_5867_55)"/>
<path d="M370.378 163.613C369.391 159.029 365.338 155.756 360.649 155.756C360.003 155.756 359.479 156.28 359.479 156.927L359.479 177.4C359.479 181.186 362.548 184.256 366.335 184.256C370.702 184.256 373.957 180.226 373.037 175.956L370.378 163.613Z" fill="url(#paint27_linear_5867_55)"/>
<path d="M370.981 254.871C370.164 259.913 365.811 263.617 360.704 263.617C360.027 263.617 359.479 263.068 359.479 262.392L359.479 238.226C359.479 234.329 362.637 231.171 366.533 231.171C370.88 231.171 374.193 235.064 373.497 239.355L370.981 254.871Z" fill="url(#paint28_linear_5867_55)"/>
<defs>
<filter id="filter0_f_5867_55" x="34.921" y="385.725" width="279.276" height="178.124" filterUnits="userSpaceOnUse" color-interpolation-filters="sRGB">
<feFlood flood-opacity="0" result="BackgroundImageFix"/>
<feBlend mode="normal" in="SourceGraphic" in2="BackgroundImageFix" result="shape"/>
<feGaussianBlur stdDeviation="42.5025" result="effect1_foregroundBlur_5867_55"/>
</filter>
<filter id="filter1_d_5867_55" x="0.747368" y="12.2592" width="345.66" height="371.729" filterUnits="userSpaceOnUse" color-interpolation-filters="sRGB">
<feFlood flood-opacity="0" result="BackgroundImageFix"/>
<feColorMatrix in="SourceAlpha" type="matrix" values="0 0 0 0 0 0 0 0 0 0 0 0 0 0 0 0 0 0 127 0" result="hardAlpha"/>
<feOffset dy="-14.8765"/>
<feGaussianBlur stdDeviation="53.1304"/>
<feColorMatrix type="matrix" values="0 0 0 0 1 0 0 0 0 0.820833 0 0 0 0 0.992833 0 0 0 0.37 0"/>
<feBlend mode="normal" in2="BackgroundImageFix" result="effect1_dropShadow_5867_55"/>
<feBlend mode="normal" in="SourceGraphic" in2="effect1_dropShadow_5867_55" result="shape"/>
</filter>
<filter id="filter2_ii_5867_55" x="69.8169" y="120.645" width="170.329" height="171.958" filterUnits="userSpaceOnUse" color-interpolation-filters="sRGB">
<feFlood flood-opacity="0" result="BackgroundImageFix"/>
<feBlend mode="normal" in="SourceGraphic" in2="BackgroundImageFix" result="shape"/>
<feColorMatrix in="SourceAlpha" type="matrix" values="0 0 0 0 0 0 0 0 0 0 0 0 0 0 0 0 0 0 127 0" result="hardAlpha"/>
<feOffset dy="-9.56348"/>
<feGaussianBlur stdDeviation="9.56348"/>
<feComposite in2="hardAlpha" operator="arithmetic" k2="-1" k3="1"/>
<feColorMatrix type="matrix" values="0 0 0 0 0.379167 0 0 0 0 0.102691 0 0 0 0 0.351519 0 0 0 0.31 0"/>
<feBlend mode="normal" in2="shape" result="effect1_innerShadow_5867_55"/>
<feColorMatrix in="SourceAlpha" type="matrix" values="0 0 0 0 0 0 0 0 0 0 0 0 0 0 0 0 0 0 127 0" result="hardAlpha"/>
<feOffset dx="-37.1913" dy="-12.7513"/>
<feGaussianBlur stdDeviation="42.5043"/>
<feComposite in2="hardAlpha" operator="arithmetic" k2="-1" k3="1"/>
<feColorMatrix type="matrix" values="0 0 0 0 0.356342 0 0 0 0 0.165208 0 0 0 0 0.7625 0 0 0 0.28 0"/>
<feBlend mode="normal" in2="effect1_innerShadow_5867_55" result="effect2_innerShadow_5867_55"/>
</filter>
<filter id="filter3_f_5867_55" x="52.3429" y="165.601" width="242.949" height="195.461" filterUnits="userSpaceOnUse" color-interpolation-filters="sRGB">
<feFlood flood-opacity="0" result="BackgroundImageFix"/>
<feBlend mode="normal" in="SourceGraphic" in2="BackgroundImageFix" result="shape"/>
<feGaussianBlur stdDeviation="40.8848" result="effect1_foregroundBlur_5867_55"/>
</filter>
<filter id="filter4_dd_5867_55" x="156.589" y="256.973" width="34.8716" height="32.3622" filterUnits="userSpaceOnUse" color-interpolation-filters="sRGB">
<feFlood flood-opacity="0" result="BackgroundImageFix"/>
<feColorMatrix in="SourceAlpha" type="matrix" values="0 0 0 0 0 0 0 0 0 0 0 0 0 0 0 0 0 0 127 0" result="hardAlpha"/>
<feOffset dy="6.37565"/>
<feGaussianBlur stdDeviation="5.84435"/>
<feColorMatrix type="matrix" values="0 0 0 0 0.599108 0 0 0 0 0.279792 0 0 0 0 0.85 0 0 0 0.35 0"/>
<feBlend mode="normal" in2="BackgroundImageFix" result="effect1_dropShadow_5867_55"/>
<feColorMatrix in="SourceAlpha" type="matrix" values="0 0 0 0 0 0 0 0 0 0 0 0 0 0 0 0 0 0 127 0" result="hardAlpha"/>
<feOffset dx="-2.12522" dy="-1.06261"/>
<feGaussianBlur stdDeviation="3.91311"/>
<feColorMatrix type="matrix" values="0 0 0 0 1 0 0 0 0 1 0 0 0 0 1 0 0 0 0.2 0"/>
<feBlend mode="normal" in2="effect1_dropShadow_5867_55" result="effect2_dropShadow_5867_55"/>
<feBlend mode="normal" in="SourceGraphic" in2="effect2_dropShadow_5867_55" result="shape"/>
</filter>
<filter id="filter5_dd_5867_55" x="112.25" y="181.863" width="47.0071" height="51.2576" filterUnits="userSpaceOnUse" color-interpolation-filters="sRGB">
<feFlood flood-opacity="0" result="BackgroundImageFix"/>
<feColorMatrix in="SourceAlpha" type="matrix" values="0 0 0 0 0 0 0 0 0 0 0 0 0 0 0 0 0 0 127 0" result="hardAlpha"/>
<feOffset dy="7.43826"/>
<feGaussianBlur stdDeviation="3.71913"/>
<feColorMatrix type="matrix" values="0 0 0 0 0.603458 0 0 0 0 0.390104 0 0 0 0 0.875 0 0 0 0.32 0"/>
<feBlend mode="normal" in2="BackgroundImageFix" result="effect1_dropShadow_5867_55"/>
<feColorMatrix in="SourceAlpha" type="matrix" values="0 0 0 0 0 0 0 0 0 0 0 0 0 0 0 0 0 0 127 0" result="hardAlpha"/>
<feOffset dx="-2.12522" dy="-2.12522"/>
<feGaussianBlur stdDeviation="1.06261"/>
<feColorMatrix type="matrix" values="0 0 0 0 1 0 0 0 0 1 0 0 0 0 1 0 0 0 0.4 0"/>
<feBlend mode="normal" in2="effect1_dropShadow_5867_55" result="effect2_dropShadow_5867_55"/>
<feBlend mode="normal" in="SourceGraphic" in2="effect2_dropShadow_5867_55" result="shape"/>
</filter>
<filter id="filter6_dd_5867_55" x="187.068" y="181.863" width="47.0071" height="51.2576" filterUnits="userSpaceOnUse" color-interpolation-filters="sRGB">
<feFlood flood-opacity="0" result="BackgroundImageFix"/>
<feColorMatrix in="SourceAlpha" type="matrix" values="0 0 0 0 0 0 0 0 0 0 0 0 0 0 0 0 0 0 127 0" result="hardAlpha"/>
<feOffset dy="7.43826"/>
<feGaussianBlur stdDeviation="3.71913"/>
<feColorMatrix type="matrix" values="0 0 0 0 0.603458 0 0 0 0 0.390104 0 0 0 0 0.875 0 0 0 0.32 0"/>
<feBlend mode="normal" in2="BackgroundImageFix" result="effect1_dropShadow_5867_55"/>
<feColorMatrix in="SourceAlpha" type="matrix" values="0 0 0 0 0 0 0 0 0 0 0 0 0 0 0 0 0 0 127 0" result="hardAlpha"/>
<feOffset dx="-2.12522" dy="-2.12522"/>
<feGaussianBlur stdDeviation="1.06261"/>
<feColorMatrix type="matrix" values="0 0 0 0 1 0 0 0 0 1 0 0 0 0 1 0 0 0 0.4 0"/>
<feBlend mode="normal" in2="effect1_dropShadow_5867_55" result="effect2_dropShadow_5867_55"/>
<feBlend mode="normal" in="SourceGraphic" in2="effect2_dropShadow_5867_55" result="shape"/>
</filter>
<filter id="filter7_f_5867_55" x="297.606" y="385.725" width="281.571" height="178.124" filterUnits="userSpaceOnUse" color-interpolation-filters="sRGB">
<feFlood flood-opacity="0" result="BackgroundImageFix"/>
<feBlend mode="normal" in="SourceGraphic" in2="BackgroundImageFix" result="shape"/>
<feGaussianBlur stdDeviation="42.5025" result="effect1_foregroundBlur_5867_55"/>
</filter>
<filter id="filter8_d_5867_55" x="183.718" y="0.422321" width="343.206" height="377.222" filterUnits="userSpaceOnUse" color-interpolation-filters="sRGB">
<feFlood flood-opacity="0" result="BackgroundImageFix"/>
<feColorMatrix in="SourceAlpha" type="matrix" values="0 0 0 0 0 0 0 0 0 0 0 0 0 0 0 0 0 0 127 0" result="hardAlpha"/>
<feOffset dy="-21.2522"/>
<feGaussianBlur stdDeviation="54.193"/>
<feColorMatrix type="matrix" values="0 0 0 0 1 0 0 0 0 0.820833 0 0 0 0 0.992833 0 0 0 0.35 0"/>
<feBlend mode="normal" in2="BackgroundImageFix" result="effect1_dropShadow_5867_55"/>
<feBlend mode="normal" in="SourceGraphic" in2="effect1_dropShadow_5867_55" result="shape"/>
</filter>
<filter id="filter9_ii_5867_55" x="245.349" y="120.497" width="173.189" height="184.889" filterUnits="userSpaceOnUse" color-interpolation-filters="sRGB">
<feFlood flood-opacity="0" result="BackgroundImageFix"/>
<feBlend mode="normal" in="SourceGraphic" in2="BackgroundImageFix" result="shape"/>
<feColorMatrix in="SourceAlpha" type="matrix" values="0 0 0 0 0 0 0 0 0 0 0 0 0 0 0 0 0 0 127 0" result="hardAlpha"/>
<feOffset dy="-9.56348"/>
<feGaussianBlur stdDeviation="9.56348"/>
<feComposite in2="hardAlpha" operator="arithmetic" k2="-1" k3="1"/>
<feColorMatrix type="matrix" values="0 0 0 0 0.379167 0 0 0 0 0.102691 0 0 0 0 0.351519 0 0 0 0.31 0"/>
<feBlend mode="normal" in2="shape" result="effect1_innerShadow_5867_55"/>
<feColorMatrix in="SourceAlpha" type="matrix" values="0 0 0 0 0 0 0 0 0 0 0 0 0 0 0 0 0 0 127 0" result="hardAlpha"/>
<feOffset dx="-46.7548" dy="14.8765"/>
<feGaussianBlur stdDeviation="42.5043"/>
<feComposite in2="hardAlpha" operator="arithmetic" k2="-1" k3="1"/>
<feColorMatrix type="matrix" values="0 0 0 0 0.291279 0 0 0 0 0.061684 0 0 0 0 0.779167 0 0 0 0.28 0"/>
<feBlend mode="normal" in2="effect1_innerShadow_5867_55" result="effect2_innerShadow_5867_55"/>
</filter>
<filter id="filter10_f_5867_55" x="213.851" y="138.773" width="249.322" height="213.54" filterUnits="userSpaceOnUse" color-interpolation-filters="sRGB">
<feFlood flood-opacity="0" result="BackgroundImageFix"/>
<feBlend mode="normal" in="SourceGraphic" in2="BackgroundImageFix" result="shape"/>
<feGaussianBlur stdDeviation="40.8848" result="effect1_foregroundBlur_5867_55"/>
</filter>
<filter id="filter11_dd_5867_55" x="317.676" y="235.032" width="32.5576" height="49.9036" filterUnits="userSpaceOnUse" color-interpolation-filters="sRGB">
<feFlood flood-opacity="0" result="BackgroundImageFix"/>
<feColorMatrix in="SourceAlpha" type="matrix" values="0 0 0 0 0 0 0 0 0 0 0 0 0 0 0 0 0 0 127 0" result="hardAlpha"/>
<feOffset dy="6.37565"/>
<feGaussianBlur stdDeviation="5.84435"/>
<feColorMatrix type="matrix" values="0 0 0 0 0.599108 0 0 0 0 0.279792 0 0 0 0 0.85 0 0 0 0.35 0"/>
<feBlend mode="normal" in2="BackgroundImageFix" result="effect1_dropShadow_5867_55"/>
<feColorMatrix in="SourceAlpha" type="matrix" values="0 0 0 0 0 0 0 0 0 0 0 0 0 0 0 0 0 0 127 0" result="hardAlpha"/>
<feOffset dx="-2.12522" dy="-1.06261"/>
<feGaussianBlur stdDeviation="3.91311"/>
<feColorMatrix type="matrix" values="0 0 0 0 1 0 0 0 0 1 0 0 0 0 1 0 0 0 0.2 0"/>
<feBlend mode="normal" in2="effect1_dropShadow_5867_55" result="effect2_dropShadow_5867_55"/>
<feBlend mode="normal" in="SourceGraphic" in2="effect2_dropShadow_5867_55" result="shape"/>
</filter>
<filter id="filter12_dd_5867_55" x="284.816" y="181.641" width="46.0947" height="48.4904" filterUnits="userSpaceOnUse" color-interpolation-filters="sRGB">
<feFlood flood-opacity="0" result="BackgroundImageFix"/>
<feColorMatrix in="SourceAlpha" type="matrix" values="0 0 0 0 0 0 0 0 0 0 0 0 0 0 0 0 0 0 127 0" result="hardAlpha"/>
<feOffset dx="-5.31304" dy="7.1052"/>
<feGaussianBlur stdDeviation="3.5526"/>
<feColorMatrix type="matrix" values="0 0 0 0 0.603458 0 0 0 0 0.390104 0 0 0 0 0.875 0 0 0 0.32 0"/>
<feBlend mode="normal" in2="BackgroundImageFix" result="effect1_dropShadow_5867_55"/>
<feColorMatrix in="SourceAlpha" type="matrix" values="0 0 0 0 0 0 0 0 0 0 0 0 0 0 0 0 0 0 127 0" result="hardAlpha"/>
<feOffset dx="3.18783" dy="-4.25043"/>
<feGaussianBlur stdDeviation="1.01503"/>
<feColorMatrix type="matrix" values="0 0 0 0 1 0 0 0 0 1 0 0 0 0 1 0 0 0 0.4 0"/>
<feBlend mode="normal" in2="effect1_dropShadow_5867_55" result="effect2_dropShadow_5867_55"/>
<feBlend mode="normal" in="SourceGraphic" in2="effect2_dropShadow_5867_55" result="shape"/>
</filter>
<filter id="filter13_dd_5867_55" x="340.231" y="182.826" width="46.2029" height="49.2955" filterUnits="userSpaceOnUse" color-interpolation-filters="sRGB">
<feFlood flood-opacity="0" result="BackgroundImageFix"/>
<feColorMatrix in="SourceAlpha" type="matrix" values="0 0 0 0 0 0 0 0 0 0 0 0 0 0 0 0 0 0 127 0" result="hardAlpha"/>
<feOffset dx="-4.25043" dy="7.43826"/>
<feGaussianBlur stdDeviation="3.5526"/>
<feColorMatrix type="matrix" values="0 0 0 0 0.603458 0 0 0 0 0.390104 0 0 0 0 0.875 0 0 0 0.32 0"/>
<feBlend mode="normal" in2="BackgroundImageFix" result="effect1_dropShadow_5867_55"/>
<feColorMatrix in="SourceAlpha" type="matrix" values="0 0 0 0 0 0 0 0 0 0 0 0 0 0 0 0 0 0 127 0" result="hardAlpha"/>
<feOffset dx="2.12522" dy="-2.03006"/>
<feGaussianBlur stdDeviation="1.01503"/>
<feColorMatrix type="matrix" values="0 0 0 0 1 0 0 0 0 1 0 0 0 0 1 0 0 0 0.4 0"/>
<feBlend mode="normal" in2="effect1_dropShadow_5867_55" result="effect2_dropShadow_5867_55"/>
<feBlend mode="normal" in="SourceGraphic" in2="effect2_dropShadow_5867_55" result="shape"/>
</filter>
<linearGradient id="paint0_linear_5867_55" x1="174.559" y1="470.73" x2="174.559" y2="478.843" gradientUnits="userSpaceOnUse">
<stop/>
<stop offset="1" stop-color="#151433" stop-opacity="0.87"/>
<stop offset="1" stop-color="#251F27" stop-opacity="0.87"/>
</linearGradient>
<linearGradient id="paint1_linear_5867_55" x1="173.621" y1="133.327" x2="173.856" y2="478.273" gradientUnits="userSpaceOnUse">
<stop stop-color="#0D0038"/>
<stop offset="1" stop-opacity="0"/>
</linearGradient>
<linearGradient id="paint2_linear_5867_55" x1="228.054" y1="178.067" x2="92.6002" y2="296.539" gradientUnits="userSpaceOnUse">
<stop stop-color="#0D0038" stop-opacity="0.64"/>
<stop offset="1" stop-color="#0D0038" stop-opacity="0"/>
</linearGradient>
<linearGradient id="paint3_linear_5867_55" x1="173.621" y1="130.115" x2="173.621" y2="292.604" gradientUnits="userSpaceOnUse">
<stop stop-color="white"/>
<stop offset="0.0698237" stop-color="#F4F0F4" stop-opacity="0.990923"/>
<stop offset="0.942282" stop-color="#C7C5FE" stop-opacity="0.77"/>
<stop offset="1" stop-color="#C4C2FF" stop-opacity="0.81"/>
</linearGradient>
<linearGradient id="paint4_linear_5867_55" x1="173.851" y1="247.162" x2="173.851" y2="279.293" gradientUnits="userSpaceOnUse">
<stop stop-color="#5B225C"/>
<stop offset="1" stop-color="#151433" stop-opacity="0.87"/>
<stop offset="1" stop-color="#59266B" stop-opacity="0.87"/>
</linearGradient>
<linearGradient id="paint5_linear_5867_55" x1="175.408" y1="263.74" x2="175.41" y2="271.99" gradientUnits="userSpaceOnUse">
<stop stop-color="#261953"/>
<stop offset="1" stop-color="#11082F"/>
</linearGradient>
<linearGradient id="paint6_linear_5867_55" x1="135.753" y1="188.418" x2="135.766" y2="221.092" gradientUnits="userSpaceOnUse">
<stop stop-color="#2E1E65"/>
<stop offset="1" stop-color="#11082F"/>
</linearGradient>
<linearGradient id="paint7_linear_5867_55" x1="148.376" y1="221.916" x2="122.606" y2="231.755" gradientUnits="userSpaceOnUse">
<stop stop-color="#FE4A23" stop-opacity="0.35"/>
<stop offset="1" stop-color="#FA43B0" stop-opacity="0"/>
</linearGradient>
<linearGradient id="paint8_linear_5867_55" x1="135.524" y1="153.524" x2="135.306" y2="189.004" gradientUnits="userSpaceOnUse">
<stop stop-color="#FE4A23" stop-opacity="0.42"/>
<stop offset="1" stop-color="#FA43B0" stop-opacity="0.38"/>
</linearGradient>
<linearGradient id="paint9_linear_5867_55" x1="135.524" y1="266.44" x2="135.242" y2="226.048" gradientUnits="userSpaceOnUse">
<stop stop-color="#FE4A23" stop-opacity="0.17"/>
<stop offset="1" stop-color="#FA43B0" stop-opacity="0.48"/>
</linearGradient>
<linearGradient id="paint10_linear_5867_55" x1="16.0653" y1="2.30436" x2="16.078" y2="34.9785" gradientUnits="userSpaceOnUse">
<stop stop-color="#2E1E65"/>
<stop offset="1" stop-color="#11082F"/>
</linearGradient>
<linearGradient id="paint11_linear_5867_55" x1="19.9669" y1="-6.96336e-07" x2="-5.80329" y2="9.83879" gradientUnits="userSpaceOnUse">
<stop stop-color="#FE4A23" stop-opacity="0.35"/>
<stop offset="1" stop-color="#FA43B0" stop-opacity="0"/>
</linearGradient>
<linearGradient id="paint12_linear_5867_55" x1="210.801" y1="153.524" x2="211.018" y2="189.004" gradientUnits="userSpaceOnUse">
<stop stop-color="#FE4A23" stop-opacity="0.42"/>
<stop offset="1" stop-color="#FA43B0" stop-opacity="0.38"/>
</linearGradient>
<linearGradient id="paint13_linear_5867_55" x1="210.801" y1="266.44" x2="211.083" y2="226.048" gradientUnits="userSpaceOnUse">
<stop stop-color="#FE4A23" stop-opacity="0.17"/>
<stop offset="1" stop-color="#FA43B0" stop-opacity="0.48"/>
</linearGradient>
<linearGradient id="paint14_linear_5867_55" x1="272.505" y1="294.641" x2="296.309" y2="294.641" gradientUnits="userSpaceOnUse">
<stop stop-color="#0D0038" stop-opacity="0.37"/>
<stop offset="1" stop-opacity="0"/>
</linearGradient>
<linearGradient id="paint15_linear_5867_55" x1="381.463" y1="135.594" x2="374.618" y2="489.176" gradientUnits="userSpaceOnUse">
<stop stop-color="#0D0038"/>
<stop offset="1" stop-opacity="0.03"/>
</linearGradient>
<linearGradient id="paint16_linear_5867_55" x1="438.392" y1="470.73" x2="438.392" y2="478.843" gradientUnits="userSpaceOnUse">
<stop/>
<stop offset="1" stop-color="#151433" stop-opacity="0.87"/>
<stop offset="1" stop-color="#251F27" stop-opacity="0.87"/>
</linearGradient>
<linearGradient id="paint17_linear_5867_55" x1="341.688" y1="318.622" x2="388.639" y2="296.964" gradientUnits="userSpaceOnUse">
<stop stop-color="#0D0038" stop-opacity="0.37"/>
<stop offset="0.626611" stop-color="#050015" stop-opacity="0.08"/>
<stop offset="1" stop-opacity="0"/>
</linearGradient>
<linearGradient id="paint18_linear_5867_55" x1="357.135" y1="119.759" x2="357.135" y2="290.51" gradientUnits="userSpaceOnUse">
<stop stop-color="white"/>
<stop offset="0.0698237" stop-color="#F4F0F4" stop-opacity="0.990923"/>
<stop offset="0.942282" stop-color="#C7C5FE" stop-opacity="0.77"/>
<stop offset="1" stop-color="#C4C2FF" stop-opacity="0.81"/>
</linearGradient>
<linearGradient id="paint19_linear_5867_55" x1="338.545" y1="220.052" x2="338.545" y2="270.543" gradientUnits="userSpaceOnUse">
<stop stop-color="#5B225C"/>
<stop offset="1" stop-color="#151433" stop-opacity="0.87"/>
<stop offset="1" stop-color="#59266B" stop-opacity="0.87"/>
</linearGradient>
<linearGradient id="paint20_linear_5867_55" x1="333.955" y1="245.567" x2="333.978" y2="268.905" gradientUnits="userSpaceOnUse">
<stop stop-color="#261953"/>
<stop offset="1" stop-color="#11082F"/>
</linearGradient>
<linearGradient id="paint21_linear_5867_55" x1="311.464" y1="189.93" x2="311.475" y2="218.403" gradientUnits="userSpaceOnUse">
<stop stop-color="#2E1E65"/>
<stop offset="1" stop-color="#11082F"/>
</linearGradient>
<linearGradient id="paint22_linear_5867_55" x1="322.509" y1="219.134" x2="299.912" y2="227.69" gradientUnits="userSpaceOnUse">
<stop stop-color="#FE4A23" stop-opacity="0.35"/>
<stop offset="1" stop-color="#FA43B0" stop-opacity="0"/>
</linearGradient>
<linearGradient id="paint23_linear_5867_55" x1="311.235" y1="159.004" x2="311.046" y2="190.117" gradientUnits="userSpaceOnUse">
<stop stop-color="#FE4A23" stop-opacity="0.42"/>
<stop offset="1" stop-color="#FA43B0" stop-opacity="0.38"/>
</linearGradient>
<linearGradient id="paint24_linear_5867_55" x1="311.235" y1="258.609" x2="310.989" y2="223.13" gradientUnits="userSpaceOnUse">
<stop stop-color="#FE4A23" stop-opacity="0.17"/>
<stop offset="1" stop-color="#FA43B0" stop-opacity="0.48"/>
</linearGradient>
<linearGradient id="paint25_linear_5867_55" x1="15.346" y1="2.20118" x2="15.3581" y2="33.4123" gradientUnits="userSpaceOnUse">
<stop stop-color="#2E1E65"/>
<stop offset="1" stop-color="#11082F"/>
</linearGradient>
<linearGradient id="paint26_linear_5867_55" x1="19.0728" y1="-6.65157e-07" x2="-5.54344" y2="9.39824" gradientUnits="userSpaceOnUse">
<stop stop-color="#FE4A23" stop-opacity="0.35"/>
<stop offset="1" stop-color="#FA43B0" stop-opacity="0"/>
</linearGradient>
<linearGradient id="paint27_linear_5867_55" x1="367.152" y1="155.756" x2="367.359" y2="189.648" gradientUnits="userSpaceOnUse">
<stop stop-color="#FE4A23" stop-opacity="0.42"/>
<stop offset="1" stop-color="#FA43B0" stop-opacity="0.38"/>
</linearGradient>
<linearGradient id="paint28_linear_5867_55" x1="367.152" y1="263.617" x2="367.421" y2="225.033" gradientUnits="userSpaceOnUse">
<stop stop-color="#FE4A23" stop-opacity="0.17"/>
<stop offset="1" stop-color="#FA43B0" stop-opacity="0.48"/>
</linearGradient>
</defs>
</svg>
