<svg width="16" height="14" viewBox="0 0 16 14" fill="none" xmlns="http://www.w3.org/2000/svg">
<path d="M15.4264 4.79605C15.6041 5.77228 15.5878 6.77396 15.3784 7.74389C15.169 8.71382 14.7706 9.633 14.206 10.449C13.6414 11.2649 12.9215 11.9617 12.0876 12.4995C11.2537 13.0373 10.3221 13.4055 9.34584 13.5832C8.36961 13.7609 7.36795 13.7446 6.39803 13.5352C5.4281 13.3258 4.5089 12.9274 3.69294 12.3628C2.87698 11.7982 2.18022 11.0784 1.64245 10.2444C1.10467 9.41054 0.736415 8.47885 0.5587 7.50261L0.55605 7.48802C-0.187347 3.38168 2.98756 1.92859 7.09389 1.18523C11.2002 0.441861 14.683 0.689759 15.4264 4.79605Z" fill="white"/>
</svg>
