<svg width="137" height="205" viewBox="0 0 137 205" fill="none" xmlns="http://www.w3.org/2000/svg">
<path d="M114.284 18.7638C115.342 19.4221 116.381 20.0927 117.418 20.7851C128.377 48.3571 134.634 77.5718 135.929 107.214C136.089 110.642 136.17 114.064 136.172 117.482C136.267 143.108 132.537 168.606 125.107 193.132C124.715 194.423 124.315 195.709 123.906 196.99C123.613 197.909 123.314 198.837 122.99 199.749C122.646 200.216 122.307 200.675 121.968 201.134C121.944 201.154 121.923 201.188 121.899 201.209C121.762 201.394 121.626 201.579 121.503 201.761C120.917 202.547 120.322 203.329 119.736 204.116L120.23 204.149L121.467 204.228L121.462 204.236C121.046 204.228 120.623 204.214 120.204 204.192C120.052 204.192 119.886 204.196 119.73 204.182C119.592 204.18 119.445 204.172 119.306 204.169C101.466 203.686 83.2092 202.795 66.9751 195.5C49.9831 187.857 35.5694 171.334 36.3019 152.723C36.405 150.286 36.7748 147.867 37.4048 145.51C37.6677 144.526 37.9785 143.558 38.3114 142.593C40.3377 136.685 43.9011 131.422 48.6353 127.347C53.3694 123.272 59.1035 120.531 65.248 119.406C71.3925 118.282 77.7256 118.814 83.5963 120.948C89.4669 123.082 94.6633 126.742 98.651 131.55C93.7813 112.412 72.8758 102.646 54.0468 96.709C35.2039 90.7752 14.004 84.5683 4.3773 67.3249C-0.997443 57.7292 -1.12686 46.5492 2.38024 36.2253C2.48701 35.9169 2.59914 35.5997 2.7197 35.2877C7.13669 23.1407 15.9745 13.1077 27.4671 7.19349C49.0002 -3.46777 75.1655 0.293873 97.2289 9.80947C103.132 12.3589 108.833 15.3523 114.284 18.7638Z" fill="#F2F2F2"/>
</svg>
