<svg width="87" height="63" viewBox="0 0 87 63" fill="none" xmlns="http://www.w3.org/2000/svg">
<path d="M15.566 0.672438C32.4911 2.22844 48.4664 9.18877 61.1305 20.5245C71.9164 30.2869 79.8752 42.773 84.1714 56.672C84.4214 57.4672 84.6489 58.2608 84.8628 59.0579C85.2904 58.2438 85.7058 57.4115 86.1164 56.587C86.3806 56.0593 86.6501 55.5228 86.9058 54.9899C86.6127 55.909 86.3142 56.8369 85.9904 57.7487C85.6463 58.2161 85.3072 58.6752 84.9683 59.1339C84.9443 59.154 84.9235 59.188 84.8992 59.2086C84.7626 59.3938 84.626 59.5791 84.5032 59.7607C83.917 60.5475 83.3222 61.3295 82.7362 62.1158L83.2298 62.1494L84.4671 62.228L84.462 62.2363C84.0466 62.2278 83.6227 62.2139 83.2039 62.1918C83.0517 62.1923 82.8859 62.1959 82.7305 62.1825C82.6794 61.9413 82.6146 61.7032 82.5501 61.4646C78.1649 43.5133 67.4311 27.7556 52.3316 17.1027C37.2321 6.44976 18.7874 1.62151 0.404968 3.50995C0.667917 2.52562 0.978685 1.55847 1.31159 0.593474C6.0563 0.205209 10.8258 0.231639 15.566 0.672438Z" fill="white"/>
</svg>
