<svg width="135" height="84" viewBox="0 0 135 84" fill="none" xmlns="http://www.w3.org/2000/svg">
<path d="M106.8 37.8854C113.591 42.9733 119.603 49.026 124.644 55.8518C127.271 59.4905 129.553 63.3659 131.46 67.4279C132.365 69.3125 133.188 71.2531 133.93 73.2137C134.089 76.6416 134.17 80.0643 134.172 83.4817C133.543 80.8983 132.776 78.3503 131.875 75.8487C131.406 74.475 130.885 73.1286 130.332 71.7975C124.126 56.8907 112.882 45.1209 99.6215 36.1725C85.4118 26.5976 69.3922 19.4097 53.1572 14.0649C36.5191 8.56186 19.2691 5.11913 1.79325 3.8137C1.39858 3.78174 1.03144 3.59877 0.768282 3.30291C0.505126 3.00705 0.366238 2.62111 0.380519 2.22541C0.367096 1.88057 0.488905 1.54412 0.719983 1.28781C0.842748 1.16756 0.991995 1.07779 1.15576 1.02569C1.31952 0.9736 1.49323 0.960653 1.6629 0.987874C3.81949 1.1492 5.9705 1.31968 8.12139 1.54771C26.0179 3.39109 43.6157 7.45315 60.5096 13.6404C76.8181 19.591 92.9583 27.3079 106.8 37.8854Z" fill="white"/>
</svg>
