<svg width="16" height="14" viewBox="0 0 16 14" fill="none" xmlns="http://www.w3.org/2000/svg">
<path d="M15.5365 4.56619C15.7142 5.54242 15.6979 6.54406 15.4885 7.51398C15.2791 8.48391 14.8807 9.40314 14.316 10.2191C13.7514 11.0351 13.0316 11.7318 12.1977 12.2696C11.3638 12.8073 10.4321 13.1756 9.45589 13.3533C8.47966 13.5311 7.47798 13.5147 6.50805 13.3053C5.53812 13.0959 4.61894 12.6975 3.80298 12.1329C2.98702 11.5683 2.29024 10.8484 1.75247 10.0145C1.21469 9.18062 0.846459 8.24898 0.668744 7.27276L0.666095 7.25816C-0.0772946 3.15182 3.0976 1.69874 7.20394 0.955373C11.3103 0.212008 14.7931 0.459874 15.5365 4.56619Z" fill="white"/>
</svg>
