<svg width="24" height="20" viewBox="0 0 24 20" fill="none" xmlns="http://www.w3.org/2000/svg">
<path d="M23 0.999985C22.0424 1.67546 20.9821 2.19209 19.86 2.52999C19.2577 1.8375 18.4573 1.34668 17.567 1.12391C16.6767 0.901145 15.7395 0.957181 14.8821 1.28444C14.0247 1.6117 13.2884 2.19439 12.773 2.9537C12.2575 3.71302 11.9877 4.61232 12 5.52998V6.52998C10.2426 6.57555 8.50127 6.1858 6.93101 5.39543C5.36074 4.60506 4.01032 3.43862 3 1.99998C3 1.99998 -1 11 8 15C5.94053 16.398 3.48716 17.0989 1 17C10 22 21 17 21 5.49998C20.9991 5.22144 20.9723 4.94358 20.92 4.66999C21.9406 3.66348 22.6608 2.3927 23 0.999985V0.999985Z" stroke="white" stroke-linecap="round" stroke-linejoin="round"/>
</svg>
