<svg width="304" height="42" viewBox="0 0 304 42" fill="none" xmlns="http://www.w3.org/2000/svg">
<path d="M36.3945 1.02344L38.2881 1.66715L39.1868 -0.976562H36.3945V1.02344ZM22.8047 41V43H24.2372L24.6983 41.6437L22.8047 41ZM13.5625 41L11.6685 41.6426L12.1291 43H13.5625V41ZM0 1.02344V-0.976562H-2.79049L-1.89397 1.66599L0 1.02344ZM8.55859 1.02344L10.4656 0.42065L10.0239 -0.976562H8.55859V1.02344ZM16.0781 24.8125L14.1711 25.4153L14.1723 25.4189L16.0781 24.8125ZM16.707 27.082L14.7725 27.5895L14.7746 27.5974L16.707 27.082ZM17.582 30.582L15.6352 31.0401L15.6392 31.057L15.6435 31.0739L17.582 30.582ZM18.2109 33.6172L16.2293 33.8874H20.1926L18.2109 33.6172ZM18.7852 30.582L16.8399 30.1175L16.8366 30.1313L16.8335 30.1451L18.7852 30.582ZM19.6328 27.1094L17.6983 26.6019L17.6953 26.6131L17.6925 26.6243L19.6328 27.1094ZM20.2617 24.8125L18.356 24.2057L18.3521 24.2179L18.3484 24.2302L20.2617 24.8125ZM27.8359 1.02344V-0.976562H26.3738L25.9302 0.416668L27.8359 1.02344ZM34.501 0.379725L20.9111 40.3563L24.6983 41.6437L38.2881 1.66715L34.501 0.379725ZM22.8047 39H13.5625V43H22.8047V39ZM15.4565 40.3574L1.89397 0.380886L-1.89397 1.66599L11.6685 41.6426L15.4565 40.3574ZM0 3.02344H8.55859V-0.976562H0V3.02344ZM6.65159 1.62622L14.1711 25.4153L17.9851 24.2097L10.4656 0.42065L6.65159 1.62622ZM14.1723 25.4189C14.282 25.7639 14.4796 26.4727 14.7725 27.5895L18.6416 26.5746C18.3512 25.4674 18.1294 24.6632 17.984 24.2061L14.1723 25.4189ZM14.7746 27.5974C15.0606 28.6699 15.3475 29.8174 15.6352 31.0401L19.5289 30.124C19.2332 28.8675 18.9368 27.6816 18.6395 26.5667L14.7746 27.5974ZM15.6435 31.0739C15.9438 32.2576 16.134 33.189 16.2293 33.8874L20.1926 33.347C20.0691 32.4412 19.8401 31.3492 19.5206 30.0902L15.6435 31.0739ZM20.1926 33.8874C20.2914 33.1628 20.4699 32.2114 20.7368 31.019L16.8335 30.1451C16.5536 31.3953 16.3492 32.4674 16.2293 33.347L20.1926 33.8874ZM20.7305 31.0466C21.0207 29.8313 21.3015 28.6806 21.5731 27.5944L17.6925 26.6243C17.4172 27.7256 17.133 28.89 16.8399 30.1175L20.7305 31.0466ZM21.5674 27.6168C21.8597 26.5024 22.0603 25.772 22.1751 25.3948L18.3484 24.2302C18.208 24.6915 17.9893 25.4924 17.6983 26.6019L21.5674 27.6168ZM22.1675 25.4193L29.7417 1.63021L25.9302 0.416668L18.356 24.2057L22.1675 25.4193ZM27.8359 3.02344H36.3945V-0.976562H27.8359V3.02344ZM65.9258 41L64.0126 41.5828L64.4443 43H65.9258V41ZM63.0273 31.4844L64.9406 30.9016L64.5089 29.4844H63.0273V31.4844ZM48.4531 31.4844V29.4844H46.9716L46.5399 30.9016L48.4531 31.4844ZM45.5547 41V43H47.0362L47.4679 41.5828L45.5547 41ZM36.4219 41L34.535 40.3368L33.5989 43H36.4219V41ZM50.5312 0.859375V-1.14062H49.1143L48.6444 0.196156L50.5312 0.859375ZM60.8945 0.859375L62.7806 0.193869L62.3097 -1.14062H60.8945V0.859375ZM75.0586 41V43H77.8852L76.9446 40.3345L75.0586 41ZM61.0039 24.375V26.375H63.7224L62.9133 23.7797L61.0039 24.375ZM58.1055 15.0781L56.1867 15.6425L56.1913 15.658L56.1961 15.6734L58.1055 15.0781ZM57.3672 12.6992L55.4496 13.2674L55.4559 13.2888L55.4628 13.3101L57.3672 12.6992ZM56.4648 9.71875L54.5418 10.2682L54.5477 10.2888L54.554 10.3094L56.4648 9.71875ZM55.7539 7.06641L57.6969 6.59249H53.8109L55.7539 7.06641ZM54.9883 9.85547L53.0701 9.28943L53.067 9.29983L53.064 9.31026L54.9883 9.85547ZM53.457 15.0781L55.368 15.6683L55.3704 15.6604L53.457 15.0781ZM50.5859 24.375L48.675 23.7849L47.8751 26.375H50.5859V24.375ZM67.839 40.4172L64.9406 30.9016L61.1141 32.0671L64.0126 41.5828L67.839 40.4172ZM63.0273 29.4844H48.4531V33.4844H63.0273V29.4844ZM46.5399 30.9016L43.6415 40.4172L47.4679 41.5828L50.3663 32.0671L46.5399 30.9016ZM45.5547 39H36.4219V43H45.5547V39ZM38.3087 41.6632L52.4181 1.52259L48.6444 0.196156L34.535 40.3368L38.3087 41.6632ZM50.5312 2.85938H60.8945V-1.14062H50.5312V2.85938ZM59.0085 1.52488L73.1726 41.6655L76.9446 40.3345L62.7806 0.193869L59.0085 1.52488ZM75.0586 39H65.9258V43H75.0586V39ZM62.9133 23.7797L60.0148 14.4829L56.1961 15.6734L59.0945 24.9703L62.9133 23.7797ZM60.0242 14.5138C59.8355 13.8723 59.584 13.0623 59.2716 12.0884L55.4628 13.3101C55.7701 14.2684 56.0108 15.0444 56.1867 15.6425L60.0242 14.5138ZM59.2848 12.131C58.9908 11.139 58.6878 10.138 58.3756 9.12814L54.554 10.3094C54.8617 11.3047 55.1602 12.2907 55.4496 13.2674L59.2848 12.131ZM58.3879 9.16931C58.1009 8.16488 57.8713 7.30715 57.6969 6.59249L53.8109 7.54032C54.0011 8.32046 54.2454 9.23095 54.5418 10.2682L58.3879 9.16931ZM53.8109 6.59249C53.6389 7.29775 53.3932 8.19437 53.0701 9.28943L56.9065 10.4215C57.2396 9.29261 57.5044 8.32985 57.6969 7.54032L53.8109 6.59249ZM53.064 9.31026C52.7561 10.3971 52.4575 11.4285 52.1683 12.4045L56.0035 13.5408C56.2977 12.5481 56.6007 11.5013 56.9125 10.4007L53.064 9.31026ZM52.1683 12.4045C51.8767 13.3887 51.6689 14.0843 51.5437 14.4958L55.3704 15.6604C55.5003 15.2334 55.7118 14.5254 56.0035 13.5408L52.1683 12.4045ZM51.5461 14.488L48.675 23.7849L52.4969 24.9651L55.368 15.6683L51.5461 14.488ZM50.5859 26.375H61.0039V22.375H50.5859V26.375ZM80.1172 41H78.1172V43H80.1172V41ZM80.1172 1.02344V-0.976562H78.1172V1.02344H80.1172ZM88.5938 1.02344H90.5938V-0.976562H88.5938V1.02344ZM88.5938 34H86.5938V36H88.5938V34ZM104.809 34H106.809V32H104.809V34ZM104.809 41V43H106.809V41H104.809ZM82.1172 41V1.02344H78.1172V41H82.1172ZM80.1172 3.02344H88.5938V-0.976562H80.1172V3.02344ZM86.5938 1.02344V34H90.5938V1.02344H86.5938ZM88.5938 36H104.809V32H88.5938V36ZM102.809 34V41H106.809V34H102.809ZM104.809 39H80.1172V43H104.809V39ZM146.918 29.3789L148.831 29.9612L148.832 29.9574L146.918 29.3789ZM143.418 35.8867L141.902 34.5826L141.894 34.5914L143.418 35.8867ZM137.512 40.0977L138.262 41.9517L138.274 41.9467L137.512 40.0977ZM120.559 40.0977L119.796 41.9468L119.808 41.9517L120.559 40.0977ZM114.625 35.8867L113.101 37.182L113.109 37.1908L114.625 35.8867ZM112.027 10.1016L110.199 9.29029L110.197 9.29535L112.027 10.1016ZM118.316 2.9375L117.287 1.22251L118.316 2.9375ZM139.781 2.9375L138.742 4.64655L138.747 4.64954L139.781 2.9375ZM146.016 10.1016L144.184 10.9038L144.188 10.9128L146.016 10.1016ZM119.93 28.1758L118.037 28.8236L118.041 28.8339L118.045 28.8441L119.93 28.1758ZM123.238 32.8242L122.057 34.4383L122.064 34.443L122.07 34.4477L123.238 32.8242ZM134.887 32.8242L136.055 34.4477L136.061 34.443L136.068 34.4383L134.887 32.8242ZM138.141 28.1758L136.248 27.528L136.245 27.5382L138.141 28.1758ZM123.238 9.08984L124.406 10.7133L124.41 10.7107L123.238 9.08984ZM119.93 13.7383L118.043 13.0753L118.039 13.0852L119.93 13.7383ZM146.066 20.957C146.066 23.8731 145.704 26.4819 145.003 28.8004L148.832 29.9574C149.663 27.2082 150.066 24.2024 150.066 20.957H146.066ZM145.005 28.7966C144.312 31.0718 143.272 32.9892 141.902 34.5826L144.934 37.1908C146.699 35.1384 147.993 32.7173 148.831 29.9612L145.005 28.7966ZM141.894 34.5914C140.567 36.1527 138.867 37.3757 136.75 38.2486L138.274 41.9467C140.932 40.8509 143.17 39.2665 144.942 37.182L141.894 34.5914ZM136.762 38.2436C134.666 39.0914 132.107 39.5469 129.035 39.5469V43.5469C132.489 43.5469 135.581 43.0362 138.262 41.9517L136.762 38.2436ZM129.035 39.5469C125.963 39.5469 123.404 39.0914 121.309 38.2436L119.808 41.9517C122.489 43.0362 125.581 43.5469 129.035 43.5469V39.5469ZM121.321 38.2486C119.201 37.375 117.489 36.1496 116.141 34.5826L113.109 37.1908C114.896 39.2696 117.14 40.8516 119.796 41.9467L121.321 38.2486ZM116.149 34.5914C114.796 32.9993 113.761 31.0718 113.067 28.7731L109.238 29.93C110.074 32.699 111.355 35.1283 113.101 37.182L116.149 34.5914ZM113.067 28.7731C112.367 26.4556 112.004 23.8379 112.004 20.9023H108.004C108.004 24.1647 108.407 27.1798 109.238 29.93L113.067 28.7731ZM112.004 20.9023C112.004 16.9781 112.644 13.6637 113.858 10.9078L110.197 9.29535C108.713 12.6645 108.004 16.5506 108.004 20.9023H112.004ZM113.855 10.9128C115.06 8.19921 116.881 6.13087 119.345 4.65249L117.287 1.22251C114.1 3.13476 111.729 5.84245 110.199 9.29029L113.855 10.9128ZM119.345 4.65249C121.775 3.19455 124.982 2.39453 129.09 2.39453V-1.60547C124.484 -1.60547 120.509 -0.710176 117.287 1.22251L119.345 4.65249ZM129.09 2.39453C133.179 2.39453 136.353 3.19442 138.742 4.64654L140.82 1.22846C137.631 -0.710049 133.677 -1.60547 129.09 -1.60547V2.39453ZM138.747 4.64954C141.191 6.12554 142.996 8.19116 144.184 10.9038L147.848 9.29936C146.338 5.8505 143.986 3.14008 140.815 1.22546L138.747 4.64954ZM144.188 10.9128C145.418 13.6859 146.066 17.0168 146.066 20.957H150.066C150.066 16.5848 149.347 12.6787 147.844 9.29029L144.188 10.9128ZM116.891 20.957C116.891 23.9032 117.255 26.5392 118.037 28.8236L121.822 27.528C121.219 25.7655 120.891 23.589 120.891 20.957H116.891ZM118.045 28.8441C118.869 31.1701 120.192 33.0732 122.057 34.4383L124.419 31.2102C123.295 30.3877 122.412 29.1919 121.815 27.5075L118.045 28.8441ZM122.07 34.4477C123.991 35.83 126.366 36.4375 129.035 36.4375V32.4375C126.964 32.4375 125.475 31.9695 124.406 31.2008L122.07 34.4477ZM129.035 36.4375C131.733 36.4375 134.129 35.8334 136.055 34.4477L133.719 31.2008C132.655 31.966 131.15 32.4375 129.035 32.4375V36.4375ZM136.068 34.4383C137.942 33.067 139.25 31.1524 140.036 28.8134L136.245 27.5382C135.683 29.2096 134.821 30.3939 133.706 31.2102L136.068 34.4383ZM140.033 28.8236C140.815 26.5392 141.18 23.9032 141.18 20.957H137.18C137.18 23.589 136.852 25.7655 136.248 27.528L140.033 28.8236ZM141.18 20.957C141.18 16.5453 140.36 12.815 138.504 9.96683L135.152 12.1504C136.432 14.1146 137.18 16.9833 137.18 20.957H141.18ZM138.504 9.96683C136.473 6.84952 133.164 5.44922 129.09 5.44922V9.44922C132.198 9.44922 134.048 10.4552 135.152 12.1504L138.504 9.96683ZM129.09 5.44922C126.399 5.44922 124.005 6.06773 122.067 7.469L124.41 10.7107C125.498 9.92446 127.005 9.44922 129.09 9.44922V5.44922ZM122.07 7.4664C120.191 8.81852 118.866 10.7311 118.043 13.0753L121.817 14.4013C122.415 12.6985 123.296 11.5122 124.406 10.7133L122.07 7.4664ZM118.039 13.0852C117.255 15.3561 116.891 17.995 116.891 20.957H120.891C120.891 18.3045 121.219 16.1309 121.82 14.3913L118.039 13.0852ZM176.969 2.33594L176.271 4.21039L176.276 4.21213L176.969 2.33594ZM182.93 17.7852L184.714 18.6891L182.93 17.7852ZM180.195 21.2578L181.481 22.7902L180.195 21.2578ZM176.531 23.582L175.698 21.7639L173.554 22.7465L174.874 24.701L176.531 23.582ZM188.289 41V43H192.052L189.947 39.881L188.289 41ZM178.883 41L177.185 42.0565L177.772 43H178.883V41ZM169.34 25.6602L171.038 24.6037L170.451 23.6602H169.34V25.6602ZM164.828 25.6602V23.6602H162.828V25.6602H164.828ZM164.828 41V43H166.828V41H164.828ZM156.352 41H154.352V43H156.352V41ZM156.352 1.02344V-0.976562H154.352V1.02344H156.352ZM164.828 7.96875V5.96875H162.828V7.96875H164.828ZM164.828 18.7695H162.828V20.7695H164.828V18.7695ZM173.578 17.375L174.801 18.9576L174.804 18.955L173.578 17.375ZM173.441 9.17188L172.388 10.8719L172.399 10.8784L173.441 9.17188ZM168 3.02344C171.486 3.02344 174.219 3.44658 176.271 4.21038L177.666 0.461494C175.016 -0.524708 171.769 -0.976562 168 -0.976562V3.02344ZM176.276 4.21213C178.324 4.96824 179.699 6.05075 180.569 7.39015L183.923 5.21141C182.496 3.01435 180.353 1.45364 177.661 0.459745L176.276 4.21213ZM180.569 7.39015C181.455 8.75459 181.969 10.5816 181.969 13H185.969C185.969 10.0226 185.334 7.38343 183.923 5.21141L180.569 7.39015ZM181.969 13C181.969 14.5679 181.672 15.8426 181.146 16.8812L184.714 18.6891C185.573 16.9934 185.969 15.0779 185.969 13H181.969ZM181.146 16.8812C180.57 18.017 179.825 18.9579 178.91 19.7254L181.481 22.7902C182.826 21.6619 183.904 20.2877 184.714 18.6891L181.146 16.8812ZM178.91 19.7254C177.914 20.5608 176.844 21.2385 175.698 21.7639L177.365 25.4002C178.843 24.7224 180.216 23.8506 181.481 22.7902L178.91 19.7254ZM174.874 24.701L186.631 42.119L189.947 39.881L178.189 22.463L174.874 24.701ZM188.289 39H178.883V43H188.289V39ZM180.581 39.9435L171.038 24.6037L167.642 26.7166L177.185 42.0565L180.581 39.9435ZM169.34 23.6602H164.828V27.6602H169.34V23.6602ZM162.828 25.6602V41H166.828V25.6602H162.828ZM164.828 39H156.352V43H164.828V39ZM158.352 41V1.02344H154.352V41H158.352ZM156.352 3.02344H168V-0.976562H156.352V3.02344ZM167.398 5.96875H164.828V9.96875H167.398V5.96875ZM162.828 7.96875V18.7695H166.828V7.96875H162.828ZM164.828 20.7695H167.562V16.7695H164.828V20.7695ZM167.562 20.7695C170.486 20.7695 173.056 20.3061 174.801 18.9576L172.355 15.7924C171.694 16.3033 170.254 16.7695 167.562 16.7695V20.7695ZM174.804 18.955C176.604 17.558 177.41 15.5353 177.41 13.2188H173.41C173.41 14.5481 172.995 15.2962 172.352 15.795L174.804 18.955ZM177.41 13.2188C177.41 10.8137 176.536 8.71884 174.484 7.46531L172.399 10.8784C172.972 11.2291 173.41 11.8321 173.41 13.2188H177.41ZM174.495 7.47186C172.721 6.37246 170.249 5.96875 167.398 5.96875V9.96875C170.016 9.96875 171.573 10.3671 172.388 10.8719L174.495 7.47186ZM217.793 41L215.88 41.5828L216.311 43H217.793V41ZM214.895 31.4844L216.808 30.9016L216.376 29.4844H214.895V31.4844ZM200.32 31.4844V29.4844H198.839L198.407 30.9016L200.32 31.4844ZM197.422 41V43H198.903L199.335 41.5828L197.422 41ZM188.289 41L186.402 40.3368L185.466 43H188.289V41ZM202.398 0.859375V-1.14062H200.981L200.512 0.196156L202.398 0.859375ZM212.762 0.859375L214.648 0.193869L214.177 -1.14062H212.762V0.859375ZM226.926 41V43H229.752L228.812 40.3345L226.926 41ZM212.871 24.375V26.375H215.59L214.78 23.7797L212.871 24.375ZM209.973 15.0781L208.054 15.6425L208.058 15.658L208.063 15.6734L209.973 15.0781ZM209.234 12.6992L207.317 13.2674L207.323 13.2888L207.33 13.3101L209.234 12.6992ZM208.332 9.71875L206.409 10.2682L206.415 10.2888L206.421 10.3094L208.332 9.71875ZM207.621 7.06641L209.564 6.59249H205.678L207.621 7.06641ZM206.855 9.85547L204.937 9.28943L204.934 9.29983L204.931 9.31026L206.855 9.85547ZM205.324 15.0781L207.235 15.6683L207.238 15.6604L205.324 15.0781ZM202.453 24.375L200.542 23.7849L199.742 26.375H202.453V24.375ZM219.706 40.4172L216.808 30.9016L212.981 32.0671L215.88 41.5828L219.706 40.4172ZM214.895 29.4844H200.32V33.4844H214.895V29.4844ZM198.407 30.9016L195.509 40.4172L199.335 41.5828L202.234 32.0671L198.407 30.9016ZM197.422 39H188.289V43H197.422V39ZM190.176 41.6632L204.285 1.52259L200.512 0.196156L186.402 40.3368L190.176 41.6632ZM202.398 2.85938H212.762V-1.14062H202.398V2.85938ZM210.876 1.52488L225.04 41.6655L228.812 40.3345L214.648 0.193869L210.876 1.52488ZM226.926 39H217.793V43H226.926V39ZM214.78 23.7797L211.882 14.4829L208.063 15.6734L210.962 24.9703L214.78 23.7797ZM211.891 14.5138C211.703 13.8723 211.451 13.0623 211.139 12.0884L207.33 13.3101C207.637 14.2684 207.878 15.0444 208.054 15.6425L211.891 14.5138ZM211.152 12.131C210.858 11.139 210.555 10.138 210.243 9.12814L206.421 10.3094C206.729 11.3047 207.027 12.2907 207.317 13.2674L211.152 12.131ZM210.255 9.16931C209.968 8.16488 209.738 7.30715 209.564 6.59249L205.678 7.54032C205.868 8.32046 206.113 9.23095 206.409 10.2682L210.255 9.16931ZM205.678 6.59249C205.506 7.29775 205.26 8.19437 204.937 9.28943L208.774 10.4215C209.107 9.29261 209.372 8.32985 209.564 7.54032L205.678 6.59249ZM204.931 9.31026C204.623 10.3971 204.325 11.4285 204.036 12.4045L207.871 13.5408C208.165 12.5481 208.468 11.5013 208.78 10.4007L204.931 9.31026ZM204.036 12.4045C203.744 13.3887 203.536 14.0843 203.411 14.4958L207.238 15.6604C207.368 15.2334 207.579 14.5254 207.871 13.5408L204.036 12.4045ZM203.413 14.488L200.542 23.7849L204.364 24.9651L207.235 15.6683L203.413 14.488ZM202.453 26.375H212.871V22.375H202.453V26.375ZM267.449 41V43H269.449V41H267.449ZM256.676 41L254.942 41.997L255.519 43H256.676V41ZM239.285 10.7578L241.019 9.76081L240.442 8.75781H239.285V10.7578ZM239.039 10.7578V8.75781H236.92L237.042 10.8736L239.039 10.7578ZM239.395 18.3867L237.396 18.4724L237.396 18.4736L239.395 18.3867ZM239.559 22.1875H241.559V22.1447L241.557 22.1019L239.559 22.1875ZM239.559 41V43H241.559V41H239.559ZM231.984 41H229.984V43H231.984V41ZM231.984 1.02344V-0.976562H229.984V1.02344H231.984ZM242.676 1.02344L244.406 0.0201187L243.828 -0.976562H242.676V1.02344ZM260.039 30.9648L258.309 31.9682L258.887 32.9648H260.039V30.9648ZM260.23 30.9648V32.9648H262.29L262.23 30.906L260.23 30.9648ZM259.93 23.6094L257.931 23.669L257.931 23.6839L257.932 23.6988L259.93 23.6094ZM259.82 19.9453H257.82V19.9752L257.821 20.005L259.82 19.9453ZM259.82 1.02344V-0.976562H257.82V1.02344H259.82ZM267.449 1.02344H269.449V-0.976562H267.449V1.02344ZM267.449 39H256.676V43H267.449V39ZM258.41 40.003L241.019 9.76081L237.551 11.7548L254.942 41.997L258.41 40.003ZM239.285 8.75781H239.039V12.7578H239.285V8.75781ZM237.042 10.8736C237.115 12.1212 237.178 13.3781 237.232 14.6442L241.229 14.473C241.174 13.187 241.109 11.91 241.036 10.6421L237.042 10.8736ZM237.232 14.6442C237.237 14.7506 237.238 14.7771 237.243 14.8835C237.247 14.9898 237.248 15.0164 237.253 15.1227C237.257 15.2291 237.259 15.2557 237.263 15.362C237.268 15.4683 237.269 15.4949 237.273 15.6013C237.278 15.7076 237.279 15.7342 237.284 15.8405C237.288 15.9469 237.289 15.9734 237.294 16.0798C237.298 16.1861 237.3 16.2127 237.304 16.319C237.309 16.4254 237.31 16.452 237.314 16.5583C237.318 16.6536 237.311 16.478 237.315 16.5732C237.319 16.6685 237.312 16.4929 237.316 16.5882C237.32 16.6835 237.312 16.5079 237.316 16.6032C237.32 16.6984 237.313 16.5228 237.317 16.6181C237.321 16.7134 237.313 16.5378 237.318 16.6331C237.322 16.7283 237.314 16.5528 237.318 16.648C237.322 16.7433 237.315 16.5677 237.319 16.663C237.323 16.7582 237.315 16.5827 237.319 16.6779C237.324 16.7732 237.316 16.5976 237.32 16.6929C237.324 16.7881 237.317 16.6126 237.321 16.7078C237.325 16.8031 237.317 16.6275 237.321 16.7228C237.325 16.818 237.318 16.6425 237.322 16.7377C237.326 16.833 237.319 16.6574 237.323 16.7527C237.327 16.8479 237.319 16.6724 237.323 16.7676C237.327 16.8629 237.32 16.6873 237.324 16.7826C237.328 16.8779 237.321 16.7023 237.325 16.7976C237.329 16.8928 237.321 16.7172 237.325 16.8125C237.329 16.9078 237.322 16.7322 237.326 16.8275C237.33 16.9227 237.322 16.7472 237.327 16.8424C237.331 16.9377 237.323 16.7621 237.327 16.8574C237.331 16.9526 237.324 16.7771 237.328 16.8723C237.332 16.9676 237.324 16.792 237.328 16.8873C237.333 16.9825 237.325 16.807 237.329 16.9022C237.333 16.9975 237.326 16.8219 237.33 16.9172C237.334 17.0124 237.326 16.8369 237.33 16.9321C237.334 17.0274 237.327 16.8518 237.331 16.9471C237.335 17.0423 237.328 16.8668 237.332 16.962C237.336 17.0573 237.328 16.8817 237.332 16.977C237.336 17.0723 237.329 16.8967 237.333 16.9919C237.337 17.0872 237.329 16.9116 237.334 17.0069C237.338 17.1022 237.33 16.9266 237.334 17.0219C237.338 17.1171 237.331 16.9415 237.335 17.0368C237.339 17.1321 237.331 16.9565 237.335 17.0518C237.34 17.147 237.332 16.9715 237.336 17.0667C237.34 17.162 237.333 16.9864 237.337 17.0817C237.341 17.1769 237.333 17.0014 237.337 17.0966C237.341 17.1919 237.334 17.0163 237.338 17.1116C237.342 17.2068 237.335 17.0313 237.339 17.1265C237.343 17.2218 237.335 17.0462 237.339 17.1415C237.343 17.2367 237.336 17.0612 237.34 17.1564C237.344 17.2517 237.337 17.0761 237.341 17.1714C237.345 17.2667 237.337 17.0911 237.341 17.1863C237.345 17.2816 237.338 17.106 237.342 17.2013C237.346 17.2966 237.338 17.121 237.343 17.2163C237.347 17.3115 237.339 17.1359 237.343 17.2312C237.347 17.3265 237.34 17.1509 237.344 17.2462C237.348 17.3414 237.34 17.1659 237.344 17.2611C237.349 17.3564 237.341 17.1808 237.345 17.2761C237.349 17.3713 237.342 17.1958 237.346 17.291C237.35 17.3863 237.342 17.2107 237.346 17.306C237.35 17.4012 237.343 17.2257 237.347 17.3209C237.351 17.4162 237.344 17.2406 237.348 17.3359C237.352 17.4311 237.344 17.2556 237.348 17.3508C237.352 17.4461 237.345 17.2705 237.349 17.3658C237.353 17.461 237.346 17.2855 237.35 17.3807C237.354 17.476 237.346 17.3004 237.35 17.3957C237.354 17.491 237.347 17.3154 237.351 17.4106C237.355 17.5059 237.347 17.3303 237.352 17.4256C237.356 17.5209 237.348 17.3453 237.352 17.4406C237.356 17.5358 237.349 17.3602 237.353 17.4555C237.357 17.5508 237.349 17.3752 237.353 17.4705C237.358 17.5657 237.35 17.3902 237.354 17.4854C237.358 17.5807 237.351 17.4051 237.355 17.5004C237.359 17.5956 237.351 17.4201 237.355 17.5153C237.359 17.6106 237.352 17.435 237.356 17.5303C237.36 17.6255 237.353 17.45 237.357 17.5452C237.361 17.6405 237.353 17.4649 237.357 17.5602C237.361 17.6554 237.354 17.4799 237.358 17.5751C237.362 17.6704 237.354 17.4948 237.359 17.5901C237.363 17.6854 237.355 17.5098 237.359 17.605C237.363 17.7003 237.356 17.5247 237.36 17.62C237.364 17.7153 237.356 17.5397 237.36 17.635C237.365 17.7302 237.357 17.5546 237.361 17.6499C237.365 17.7452 237.358 17.5696 237.362 17.6649C237.366 17.7601 237.358 17.5846 237.362 17.6798C237.366 17.7751 237.359 17.5995 237.363 17.6948C237.367 17.79 237.36 17.6145 237.364 17.7097C237.368 17.805 237.36 17.6294 237.364 17.7247C237.368 17.8199 237.361 17.6444 237.365 17.7396C237.369 17.8349 237.362 17.6593 237.366 17.7546C237.37 17.8498 237.362 17.6743 237.366 17.7695C237.37 17.8648 237.363 17.6892 237.367 17.7845C237.371 17.8797 237.363 17.7042 237.368 17.7994C237.372 17.8947 237.364 17.7191 237.368 17.8144C237.372 17.9097 237.365 17.7341 237.369 17.8293C237.373 17.9246 237.365 17.749 237.369 17.8443C237.374 17.9396 237.366 17.764 237.37 17.8593C237.374 17.9545 237.367 17.7789 237.371 17.8742C237.375 17.9695 237.367 17.7939 237.371 17.8892C237.375 17.9844 237.368 17.8089 237.372 17.9041C237.376 17.9994 237.369 17.8238 237.373 17.9191C237.377 18.0143 237.369 17.8388 237.373 17.934C237.377 18.0293 237.37 17.8537 237.374 17.949C237.378 18.0442 237.37 17.8687 237.375 17.9639C237.379 18.0592 237.371 17.8836 237.375 17.9789C237.379 18.0741 237.372 17.8986 237.376 17.9938C237.38 18.0891 237.372 17.9135 237.376 18.0088C237.381 18.1041 237.373 17.9285 237.377 18.0237C237.381 18.119 237.374 17.9434 237.378 18.0387C237.382 18.134 237.374 17.9584 237.378 18.0537C237.383 18.1489 237.375 17.9733 237.379 18.0686C237.383 18.1639 237.376 17.9883 237.38 18.0836C237.384 18.1788 237.376 18.0033 237.38 18.0985C237.384 18.1938 237.377 18.0182 237.381 18.1135C237.385 18.2087 237.378 18.0332 237.382 18.1284C237.386 18.2237 237.378 18.0481 237.382 18.1434C237.386 18.2386 237.379 18.0631 237.383 18.1583C237.387 18.2536 237.379 18.078 237.384 18.1733C237.388 18.2685 237.38 18.093 237.384 18.1882C237.388 18.2835 237.381 18.1079 237.385 18.2032C237.389 18.2985 237.381 18.1229 237.385 18.2181C237.39 18.3134 237.382 18.1378 237.386 18.2331C237.39 18.3284 237.383 18.1528 237.387 18.2481C237.391 18.3433 237.383 18.1677 237.387 18.263C237.391 18.3583 237.384 18.1827 237.388 18.278C237.392 18.3732 237.385 18.1977 237.389 18.2929C237.393 18.3882 237.385 18.2126 237.389 18.3079C237.393 18.4031 237.386 18.2276 237.39 18.3228C237.394 18.4181 237.387 18.2425 237.391 18.3378C237.395 18.433 237.387 18.2575 237.391 18.3527C237.395 18.448 237.388 18.2724 237.392 18.3677C237.396 18.4629 237.388 18.2874 237.393 18.3826C237.397 18.4779 237.389 18.3023 237.393 18.3976C237.397 18.4928 237.39 18.3173 237.394 18.4125C237.398 18.5078 237.39 18.3322 237.394 18.4275C237.399 18.5228 237.391 18.3472 237.395 18.4424C237.399 18.5377 237.392 18.3621 237.396 18.4574C237.4 18.5527 237.392 18.3771 237.396 18.4724L241.393 18.3011C241.388 18.1947 241.387 18.1682 241.382 18.0618C241.378 17.9555 241.377 17.9289 241.372 17.8226C241.368 17.7162 241.366 17.6896 241.362 17.5833C241.357 17.477 241.356 17.4504 241.352 17.3441C241.347 17.2377 241.346 17.2111 241.341 17.1048C241.337 16.9985 241.336 16.9719 241.331 16.8655C241.327 16.7592 241.325 16.7326 241.321 16.6263C241.316 16.5199 241.315 16.4934 241.311 16.387C241.307 16.2918 241.314 16.4673 241.31 16.3721C241.306 16.2768 241.313 16.4524 241.309 16.3571C241.305 16.2619 241.313 16.4374 241.309 16.3422C241.305 16.2469 241.312 16.4225 241.308 16.3272C241.304 16.2319 241.312 16.4075 241.307 16.3123C241.303 16.217 241.311 16.3926 241.307 16.2973C241.303 16.202 241.31 16.3776 241.306 16.2823C241.302 16.1871 241.31 16.3627 241.306 16.2674C241.301 16.1721 241.309 16.3477 241.305 16.2524C241.301 16.1572 241.308 16.3327 241.304 16.2375C241.3 16.1422 241.308 16.3178 241.304 16.2225C241.3 16.1273 241.307 16.3028 241.303 16.2076C241.299 16.1123 241.306 16.2879 241.302 16.1926C241.298 16.0974 241.306 16.2729 241.302 16.1777C241.298 16.0824 241.305 16.258 241.301 16.1627C241.297 16.0675 241.304 16.243 241.3 16.1478C241.296 16.0525 241.304 16.2281 241.3 16.1328C241.296 16.0375 241.303 16.2131 241.299 16.1179C241.295 16.0226 241.303 16.1982 241.298 16.1029C241.294 16.0076 241.302 16.1832 241.298 16.0879C241.294 15.9927 241.301 16.1683 241.297 16.073C241.293 15.9777 241.301 16.1533 241.297 16.058C241.292 15.9628 241.3 16.1383 241.296 16.0431C241.292 15.9478 241.299 16.1234 241.295 16.0281C241.291 15.9329 241.299 16.1084 241.295 16.0132C241.291 15.9179 241.298 16.0935 241.294 15.9982C241.29 15.903 241.297 16.0785 241.293 15.9833C241.289 15.888 241.297 16.0636 241.293 15.9683C241.289 15.8731 241.296 16.0486 241.292 15.9534C241.288 15.8581 241.296 16.0337 241.291 15.9384C241.287 15.8432 241.295 16.0187 241.291 15.9235C241.287 15.8282 241.294 16.0038 241.29 15.9085C241.286 15.8132 241.294 15.9888 241.29 15.8936C241.285 15.7983 241.293 15.9739 241.289 15.8786C241.285 15.7833 241.292 15.9589 241.288 15.8636C241.284 15.7684 241.292 15.944 241.288 15.8487C241.284 15.7534 241.291 15.929 241.287 15.8337C241.283 15.7385 241.29 15.914 241.286 15.8188C241.282 15.7235 241.29 15.8991 241.286 15.8038C241.282 15.7086 241.289 15.8841 241.285 15.7889C241.281 15.6936 241.288 15.8692 241.284 15.7739C241.28 15.6787 241.288 15.8542 241.284 15.759C241.28 15.6637 241.287 15.8393 241.283 15.744C241.279 15.6488 241.287 15.8243 241.282 15.7291C241.278 15.6338 241.286 15.8094 241.282 15.7141C241.278 15.6188 241.285 15.7944 241.281 15.6992C241.277 15.6039 241.285 15.7795 241.281 15.6842C241.276 15.5889 241.284 15.7645 241.28 15.6692C241.276 15.574 241.283 15.7496 241.279 15.6543C241.275 15.559 241.283 15.7346 241.279 15.6393C241.275 15.5441 241.282 15.7196 241.278 15.6244C241.274 15.5291 241.281 15.7047 241.277 15.6094C241.273 15.5142 241.281 15.6897 241.277 15.5945C241.273 15.4992 241.28 15.6748 241.276 15.5795C241.272 15.4843 241.279 15.6598 241.275 15.5646C241.271 15.4693 241.279 15.6449 241.275 15.5496C241.271 15.4544 241.278 15.6299 241.274 15.5347C241.27 15.4394 241.278 15.615 241.273 15.5197C241.269 15.4244 241.277 15.6 241.273 15.5048C241.269 15.4095 241.276 15.5851 241.272 15.4898C241.268 15.3945 241.276 15.5701 241.272 15.4748C241.267 15.3796 241.275 15.5552 241.271 15.4599C241.267 15.3646 241.274 15.5402 241.27 15.4449C241.266 15.3497 241.274 15.5252 241.27 15.43C241.266 15.3347 241.273 15.5103 241.269 15.415C241.265 15.3198 241.272 15.4953 241.268 15.4001C241.264 15.3048 241.272 15.4804 241.268 15.3851C241.264 15.2899 241.271 15.4654 241.267 15.3702C241.263 15.2749 241.271 15.4505 241.266 15.3552C241.262 15.26 241.27 15.4355 241.266 15.3403C241.262 15.245 241.269 15.4206 241.265 15.3253C241.261 15.2301 241.269 15.4056 241.265 15.3104C241.26 15.2151 241.268 15.3907 241.264 15.2954C241.26 15.2001 241.267 15.3757 241.263 15.2805C241.259 15.1852 241.267 15.3608 241.263 15.2655C241.259 15.1702 241.266 15.3458 241.262 15.2505C241.258 15.1553 241.265 15.3309 241.261 15.2356C241.257 15.1403 241.265 15.3159 241.261 15.2206C241.257 15.1254 241.264 15.3009 241.26 15.2057C241.256 15.1104 241.263 15.286 241.259 15.1907C241.255 15.0955 241.263 15.271 241.259 15.1758C241.255 15.0805 241.262 15.2561 241.258 15.1608C241.254 15.0656 241.262 15.2411 241.257 15.1459C241.253 15.0506 241.261 15.2262 241.257 15.1309C241.253 15.0357 241.26 15.2112 241.256 15.116C241.252 15.0207 241.26 15.1963 241.256 15.101C241.251 15.0057 241.259 15.1813 241.255 15.0861C241.251 14.9908 241.258 15.1664 241.254 15.0711C241.25 14.9758 241.258 15.1514 241.254 15.0561C241.25 14.9609 241.257 15.1365 241.253 15.0412C241.249 14.9459 241.256 15.1215 241.252 15.0262C241.248 14.931 241.256 15.1065 241.252 15.0113C241.248 14.916 241.255 15.0916 241.251 14.9963C241.247 14.9011 241.255 15.0766 241.25 14.9814C241.246 14.8861 241.254 15.0617 241.25 14.9664C241.246 14.8712 241.253 15.0467 241.249 14.9515C241.245 14.8562 241.253 15.0318 241.249 14.9365C241.244 14.8413 241.252 15.0168 241.248 14.9216C241.244 14.8263 241.251 15.0019 241.247 14.9066C241.243 14.8114 241.251 14.9869 241.247 14.8917C241.242 14.7964 241.25 14.972 241.246 14.8767C241.242 14.7814 241.249 14.957 241.245 14.8618C241.241 14.7665 241.249 14.9421 241.245 14.8468C241.241 14.7515 241.248 14.9271 241.244 14.8318C241.24 14.7366 241.247 14.9122 241.243 14.8169C241.239 14.7216 241.247 14.8972 241.243 14.8019C241.239 14.7067 241.246 14.8822 241.242 14.787C241.238 14.6917 241.246 14.8673 241.241 14.772C241.237 14.6768 241.245 14.8523 241.241 14.7571C241.237 14.6618 241.244 14.8374 241.24 14.7421C241.236 14.6469 241.244 14.8224 241.24 14.7272C241.235 14.6319 241.243 14.8075 241.239 14.7122C241.235 14.617 241.242 14.7925 241.238 14.6973C241.234 14.602 241.242 14.7776 241.238 14.6823C241.234 14.587 241.241 14.7626 241.237 14.6674C241.233 14.5721 241.24 14.7477 241.236 14.6524C241.232 14.5571 241.24 14.7327 241.236 14.6374C241.232 14.5422 241.239 14.7178 241.235 14.6225C241.231 14.5272 241.238 14.7028 241.234 14.6075C241.23 14.5123 241.238 14.6878 241.234 14.5926C241.23 14.4973 241.237 14.6729 241.233 14.5776C241.229 14.4824 241.237 14.6579 241.232 14.5627C241.228 14.4674 241.236 14.643 241.232 14.5477C241.228 14.4525 241.235 14.628 241.231 14.5328C241.227 14.4375 241.235 14.6131 241.231 14.5178C241.226 14.4226 241.234 14.5981 241.23 14.5029C241.226 14.4076 241.233 14.5832 241.229 14.4879C241.225 14.3927 241.233 14.5682 241.229 14.473L237.232 14.6442ZM237.396 18.4736C237.451 19.731 237.506 20.9975 237.56 22.2731L241.557 22.1019C241.502 20.8254 241.447 19.5581 241.393 18.2998L237.396 18.4736ZM237.559 22.1875V41H241.559V22.1875H237.559ZM239.559 39H231.984V43H239.559V39ZM233.984 41V1.02344H229.984V41H233.984ZM231.984 3.02344H242.676V-0.976562H231.984V3.02344ZM240.946 2.02676L258.309 31.9682L261.769 29.9615L244.406 0.0201187L240.946 2.02676ZM260.039 32.9648H260.23V28.9648H260.039V32.9648ZM262.23 30.906C262.193 29.6564 262.147 28.4157 262.092 27.184L258.096 27.3629C258.15 28.5739 258.195 29.7941 258.231 31.0236L262.23 30.906ZM262.092 27.184C262.083 26.9804 262.08 26.9295 262.071 26.726C262.062 26.5224 262.06 26.4715 262.051 26.268C262.042 26.0644 262.039 26.0135 262.03 25.81C262.021 25.6064 262.019 25.5555 262.01 25.3519C262.006 25.2756 262.011 25.371 262.007 25.2947C262.004 25.2184 262.008 25.3138 262.005 25.2374C262.001 25.1611 262.005 25.2565 262.002 25.1802C261.999 25.1039 262.003 25.1993 261.999 25.1229C261.996 25.0466 262 25.142 261.997 25.0657C261.993 24.9894 261.998 25.0848 261.994 25.0084C261.992 24.9575 261.994 25.0021 261.992 24.9512C261.992 24.9488 261.992 24.9464 261.991 24.944C261.991 24.9416 261.991 24.9393 261.991 24.9369C261.991 24.9345 261.991 24.9321 261.991 24.9297C261.991 24.9273 261.991 24.9249 261.99 24.9226C261.99 24.9202 261.99 24.9178 261.99 24.9154C261.99 24.913 261.99 24.9106 261.99 24.9082C261.99 24.9059 261.99 24.9035 261.99 24.9011C261.989 24.8987 261.989 24.8963 261.989 24.8939C261.989 24.8916 261.989 24.8892 261.989 24.8868C261.989 24.8844 261.989 24.882 261.989 24.8796C261.988 24.8772 261.988 24.8749 261.988 24.8725C261.988 24.8701 261.988 24.8677 261.988 24.8653C261.988 24.8629 261.988 24.8605 261.988 24.8582C261.987 24.8558 261.987 24.8534 261.987 24.851C261.987 24.8486 261.987 24.8462 261.987 24.8438C261.987 24.8415 261.987 24.8391 261.987 24.8367C261.987 24.8343 261.986 24.8319 261.986 24.8295C261.986 24.8271 261.986 24.8248 261.986 24.8224C261.986 24.82 261.986 24.8176 261.986 24.8152C261.986 24.8128 261.985 24.8104 261.985 24.8081C261.985 24.8057 261.985 24.8033 261.985 24.8009C261.985 24.7985 261.985 24.7961 261.985 24.7937C261.985 24.7914 261.984 24.789 261.984 24.7866C261.984 24.7842 261.984 24.7818 261.984 24.7794C261.984 24.7771 261.984 24.7747 261.984 24.7723C261.984 24.7699 261.984 24.7675 261.983 24.7651C261.983 24.7627 261.983 24.7603 261.983 24.758C261.983 24.7556 261.983 24.7532 261.983 24.7508C261.983 24.7484 261.983 24.746 261.982 24.7437C261.982 24.7413 261.982 24.7389 261.982 24.7365C261.982 24.7341 261.982 24.7317 261.982 24.7293C261.982 24.727 261.982 24.7246 261.982 24.7222C261.981 24.7198 261.981 24.7174 261.981 24.715C261.981 24.7126 261.981 24.7103 261.981 24.7079C261.981 24.7055 261.981 24.7031 261.981 24.7007C261.98 24.6983 261.98 24.6959 261.98 24.6936C261.98 24.6912 261.98 24.6888 261.98 24.6864C261.98 24.684 261.98 24.6816 261.98 24.6792C261.979 24.6769 261.979 24.6745 261.979 24.6721C261.979 24.6697 261.979 24.6673 261.979 24.6649C261.979 24.6625 261.979 24.6602 261.979 24.6578C261.979 24.6554 261.978 24.653 261.978 24.6506C261.978 24.6482 261.978 24.6458 261.978 24.6435C261.978 24.6411 261.978 24.6387 261.978 24.6363C261.978 24.6339 261.977 24.6315 261.977 24.6292C261.977 24.6268 261.977 24.6244 261.977 24.622C261.977 24.6196 261.977 24.6172 261.977 24.6148C261.977 24.6125 261.977 24.6101 261.976 24.6077C261.976 24.6053 261.976 24.6029 261.976 24.6005C261.976 24.5981 261.976 24.5958 261.976 24.5934C261.976 24.591 261.976 24.5886 261.975 24.5862C261.975 24.5838 261.975 24.5814 261.975 24.5791C261.975 24.5767 261.975 24.5743 261.975 24.5719C261.975 24.5695 261.975 24.5671 261.974 24.5647C261.974 24.5624 261.974 24.56 261.974 24.5576C261.974 24.5552 261.974 24.5528 261.974 24.5504C261.974 24.548 261.974 24.5457 261.974 24.5433C261.973 24.5409 261.973 24.5385 261.973 24.5361C261.973 24.5337 261.973 24.5313 261.973 24.529C261.973 24.5266 261.973 24.5242 261.973 24.5218C261.972 24.5194 261.972 24.517 261.972 24.5146C261.972 24.5123 261.972 24.5099 261.972 24.5075C261.972 24.5051 261.972 24.5027 261.972 24.5003C261.971 24.498 261.971 24.4956 261.971 24.4932C261.971 24.4908 261.971 24.4884 261.971 24.486C261.971 24.4836 261.971 24.4813 261.971 24.4789C261.971 24.4765 261.97 24.4741 261.97 24.4717C261.97 24.4693 261.97 24.4669 261.97 24.4646C261.97 24.4622 261.97 24.4598 261.97 24.4574C261.97 24.455 261.969 24.4526 261.969 24.4502C261.969 24.4479 261.969 24.4455 261.969 24.4431C261.969 24.4407 261.969 24.4383 261.969 24.4359C261.969 24.4335 261.968 24.4312 261.968 24.4288C261.968 24.4264 261.968 24.424 261.968 24.4216C261.968 24.4192 261.968 24.4168 261.968 24.4145C261.968 24.4121 261.968 24.4097 261.967 24.4073C261.967 24.4049 261.967 24.4025 261.967 24.4001C261.967 24.3978 261.967 24.3954 261.967 24.393C261.967 24.3906 261.967 24.3882 261.966 24.3858C261.966 24.3834 261.966 24.3811 261.966 24.3787C261.966 24.3763 261.966 24.3739 261.966 24.3715C261.966 24.3691 261.966 24.3667 261.965 24.3644C261.965 24.362 261.965 24.3596 261.965 24.3572C261.965 24.3548 261.965 24.3524 261.965 24.3501C261.965 24.3477 261.965 24.3453 261.965 24.3429C261.964 24.3405 261.964 24.3381 261.964 24.3357C261.964 24.3334 261.964 24.331 261.964 24.3286C261.964 24.3262 261.964 24.3238 261.964 24.3214C261.963 24.319 261.963 24.3167 261.963 24.3143C261.963 24.3119 261.963 24.3095 261.963 24.3071C261.963 24.3047 261.963 24.3023 261.963 24.3C261.962 24.2976 261.962 24.2952 261.962 24.2928C261.962 24.2904 261.962 24.288 261.962 24.2856C261.962 24.2833 261.962 24.2809 261.962 24.2785C261.962 24.2761 261.961 24.2737 261.961 24.2713C261.961 24.2689 261.961 24.2666 261.961 24.2642C261.961 24.2618 261.961 24.2594 261.961 24.257C261.961 24.2546 261.96 24.2522 261.96 24.2499C261.96 24.2475 261.96 24.2451 261.96 24.2427C261.96 24.2403 261.96 24.2379 261.96 24.2355C261.96 24.2332 261.96 24.2308 261.959 24.2284C261.959 24.226 261.959 24.2236 261.959 24.2212C261.959 24.2189 261.959 24.2165 261.959 24.2141C261.959 24.2117 261.959 24.2093 261.958 24.2069C261.958 24.2045 261.958 24.2022 261.958 24.1998C261.958 24.1974 261.958 24.195 261.958 24.1926C261.958 24.1902 261.958 24.1878 261.957 24.1855C261.957 24.1831 261.957 24.1807 261.957 24.1783C261.957 24.1759 261.957 24.1735 261.957 24.1711C261.957 24.1688 261.957 24.1664 261.957 24.164C261.956 24.1616 261.956 24.1592 261.956 24.1568C261.956 24.1544 261.956 24.1521 261.956 24.1497C261.956 24.1473 261.956 24.1449 261.956 24.1425C261.955 24.1401 261.955 24.1377 261.955 24.1354C261.955 24.133 261.955 24.1306 261.955 24.1282C261.955 24.1258 261.955 24.1234 261.955 24.121C261.954 24.1187 261.954 24.1163 261.954 24.1139C261.954 24.1115 261.954 24.1091 261.954 24.1067C261.954 24.1044 261.954 24.102 261.954 24.0996C261.954 24.0972 261.953 24.0948 261.953 24.0924C261.953 24.09 261.953 24.0877 261.953 24.0853C261.953 24.0829 261.953 24.0805 261.953 24.0781C261.953 24.0757 261.952 24.0733 261.952 24.071C261.952 24.0686 261.952 24.0662 261.952 24.0638C261.952 24.0614 261.952 24.059 261.952 24.0566C261.952 24.0543 261.952 24.0519 261.951 24.0495C261.951 24.0471 261.951 24.0447 261.951 24.0423C261.951 24.0399 261.951 24.0376 261.951 24.0352C261.951 24.0328 261.951 24.0304 261.95 24.028C261.95 24.0256 261.95 24.0232 261.95 24.0209C261.95 24.0185 261.95 24.0161 261.95 24.0137C261.95 24.0113 261.95 24.0089 261.949 24.0065C261.949 24.0042 261.949 24.0018 261.949 23.9994C261.949 23.997 261.949 23.9946 261.949 23.9922C261.949 23.9898 261.949 23.9875 261.949 23.9851C261.948 23.9827 261.948 23.9803 261.948 23.9779C261.948 23.9755 261.948 23.9731 261.948 23.9708C261.948 23.9684 261.948 23.966 261.948 23.9636C261.947 23.9612 261.947 23.9588 261.947 23.9565C261.947 23.9541 261.947 23.9517 261.947 23.9493C261.947 23.9469 261.947 23.9445 261.947 23.9421C261.946 23.9398 261.946 23.9374 261.946 23.935C261.946 23.9326 261.946 23.9302 261.946 23.9278C261.946 23.9254 261.946 23.9231 261.946 23.9207C261.946 23.9183 261.945 23.9159 261.945 23.9135C261.945 23.9111 261.945 23.9087 261.945 23.9064C261.945 23.904 261.945 23.9016 261.945 23.8992C261.945 23.8968 261.944 23.8944 261.944 23.892C261.944 23.8897 261.944 23.8873 261.944 23.8849C261.944 23.8825 261.944 23.8801 261.944 23.8777C261.944 23.8753 261.943 23.873 261.943 23.8706C261.943 23.8682 261.943 23.8658 261.943 23.8634C261.943 23.861 261.943 23.8586 261.943 23.8563C261.943 23.8539 261.943 23.8515 261.942 23.8491C261.942 23.8467 261.942 23.8443 261.942 23.8419C261.942 23.8396 261.942 23.8372 261.942 23.8348C261.942 23.8324 261.942 23.83 261.941 23.8276C261.941 23.8253 261.941 23.8229 261.941 23.8205C261.941 23.8181 261.941 23.8157 261.941 23.8133C261.941 23.8109 261.941 23.8086 261.94 23.8062C261.94 23.8038 261.94 23.8014 261.94 23.799C261.94 23.7966 261.94 23.7942 261.94 23.7919C261.94 23.7895 261.94 23.7871 261.94 23.7847C261.939 23.7823 261.939 23.7799 261.939 23.7775C261.939 23.7752 261.939 23.7728 261.939 23.7704C261.939 23.768 261.939 23.7656 261.939 23.7632C261.938 23.7608 261.938 23.7585 261.938 23.7561C261.938 23.7537 261.938 23.7513 261.938 23.7489C261.938 23.7465 261.938 23.7441 261.938 23.7418C261.938 23.7394 261.937 23.737 261.937 23.7346C261.937 23.7322 261.937 23.7298 261.937 23.7274C261.937 23.7251 261.937 23.7227 261.937 23.7203C261.937 23.7179 261.936 23.7155 261.936 23.7131C261.936 23.7108 261.936 23.7084 261.936 23.706C261.936 23.7036 261.936 23.7012 261.936 23.6988C261.936 23.6964 261.935 23.694 261.935 23.6917C261.935 23.6893 261.935 23.6869 261.935 23.6845C261.935 23.6821 261.935 23.6797 261.935 23.6774C261.935 23.675 261.935 23.6726 261.934 23.6702C261.934 23.6678 261.934 23.6654 261.934 23.663C261.934 23.6607 261.934 23.6583 261.934 23.6559C261.934 23.6535 261.934 23.6511 261.933 23.6487C261.933 23.6463 261.933 23.644 261.933 23.6416C261.933 23.6392 261.933 23.6368 261.933 23.6344C261.933 23.632 261.933 23.6296 261.932 23.6273C261.932 23.6249 261.932 23.6225 261.932 23.6201C261.932 23.6177 261.932 23.6153 261.932 23.6129C261.932 23.6106 261.932 23.6082 261.932 23.6058C261.931 23.6034 261.931 23.601 261.931 23.5986C261.931 23.5962 261.931 23.5939 261.931 23.5915C261.931 23.5891 261.931 23.5867 261.931 23.5843C261.93 23.5819 261.93 23.5795 261.93 23.5772C261.93 23.5748 261.93 23.5724 261.93 23.57C261.93 23.5676 261.93 23.5652 261.93 23.5629C261.93 23.5605 261.929 23.5581 261.929 23.5557C261.929 23.5533 261.929 23.5509 261.929 23.5485C261.929 23.5462 261.929 23.5438 261.929 23.5414C261.929 23.539 261.928 23.5366 261.928 23.5342C261.928 23.5318 261.928 23.5295 261.928 23.5271C261.928 23.5247 261.928 23.5223 261.928 23.5199L257.932 23.6988C257.936 23.8006 257.937 23.8261 257.942 23.9278C257.947 24.0296 257.948 24.0551 257.952 24.1568C257.957 24.2586 257.958 24.2841 257.962 24.3858C257.967 24.4876 257.968 24.5131 257.973 24.6149C257.977 24.7166 257.978 24.7421 257.983 24.8439C257.988 24.9456 257.989 24.9711 257.993 25.0729C258.002 25.2764 258.005 25.3273 258.014 25.5309C258.017 25.6072 258.013 25.5118 258.016 25.5881C258.02 25.6645 258.015 25.569 258.019 25.6454C258.022 25.7217 258.018 25.6263 258.021 25.7026C258.025 25.779 258.021 25.6835 258.024 25.7599C258.027 25.8362 258.023 25.7408 258.027 25.8171C258.03 25.8935 258.026 25.798 258.029 25.8744C258.033 25.9507 258.028 25.8553 258.032 25.9316C258.035 26.008 258.031 25.9125 258.034 25.9889C258.038 26.0652 258.033 25.9698 258.037 26.0461C258.04 26.1225 258.036 26.027 258.039 26.1034C258.043 26.1797 258.039 26.0843 258.042 26.1606C258.045 26.237 258.041 26.1415 258.044 26.2179C258.048 26.2942 258.044 26.1988 258.047 26.2751C258.05 26.3515 258.046 26.256 258.05 26.3324C258.053 26.4087 258.049 26.3133 258.052 26.3896C258.056 26.466 258.051 26.3705 258.055 26.4469C258.058 26.5232 258.054 26.4278 258.057 26.5041C258.061 26.5805 258.056 26.4851 258.06 26.5614C258.063 26.6377 258.059 26.5423 258.062 26.6186C258.066 26.695 258.062 26.5996 258.065 26.6759C258.068 26.7522 258.064 26.6568 258.068 26.7331C258.071 26.8095 258.067 26.7141 258.07 26.7904C258.074 26.8667 258.069 26.7713 258.073 26.8476C258.076 26.924 258.072 26.8286 258.075 26.9049C258.079 26.9812 258.074 26.8858 258.078 26.9621C258.081 27.0385 258.077 26.9431 258.08 27.0194C258.084 27.0957 258.08 27.0003 258.083 27.0766C258.086 27.153 258.082 27.0576 258.086 27.1339C258.089 27.2102 258.085 27.1148 258.088 27.1911C258.091 27.2675 258.087 27.1721 258.091 27.2484C258.094 27.3247 258.09 27.2293 258.093 27.3056C258.097 27.382 258.092 27.2866 258.096 27.3629L262.092 27.184ZM261.929 23.5497C261.928 23.5358 261.927 23.5063 261.927 23.4925C261.927 23.4786 261.926 23.4491 261.925 23.4352C261.925 23.4213 261.924 23.3918 261.924 23.3779C261.923 23.3641 261.922 23.3346 261.922 23.3207C261.922 23.3068 261.921 23.2773 261.92 23.2634C261.92 23.2496 261.919 23.2201 261.919 23.2062C261.918 23.1923 261.917 23.1628 261.917 23.1489C261.916 23.1351 261.916 23.1056 261.915 23.0917C261.915 23.0778 261.914 23.0483 261.913 23.0344C261.913 23.0206 261.912 22.9911 261.912 22.9772C261.911 22.9633 261.91 22.9338 261.91 22.9199C261.91 22.9061 261.909 22.8766 261.908 22.8627C261.908 22.8488 261.907 22.8193 261.907 22.8054C261.906 22.7916 261.905 22.7621 261.905 22.7482C261.904 22.7343 261.904 22.7048 261.903 22.6909C261.903 22.6771 261.902 22.6476 261.901 22.6337C261.901 22.6198 261.9 22.5903 261.9 22.5764C261.899 22.5626 261.898 22.5331 261.898 22.5192C261.898 22.5053 261.897 22.4758 261.896 22.4619C261.896 22.4481 261.895 22.4186 261.895 22.4047C261.894 22.3908 261.893 22.3613 261.893 22.3474C261.892 22.3335 261.892 22.3041 261.891 22.2902C261.891 22.2763 261.89 22.2468 261.889 22.2329C261.889 22.219 261.888 22.1896 261.888 22.1757C261.887 22.1618 261.886 22.1323 261.886 22.1184C261.886 22.1045 261.885 22.0751 261.884 22.0612C261.884 22.0473 261.883 22.0178 261.883 22.0039C261.882 21.99 261.881 21.9606 261.881 21.9467C261.881 21.9328 261.88 21.9033 261.879 21.8894C261.879 21.8755 261.878 21.8461 261.878 21.8322C261.877 21.8183 261.876 21.7888 261.876 21.7749C261.875 21.761 261.875 21.7315 261.874 21.7177C261.873 21.6807 261.862 21.2967 261.86 21.2597C261.859 21.2226 261.848 20.8387 261.847 20.8017C261.846 20.7646 261.834 20.3807 261.833 20.3436C261.832 20.3066 261.821 19.9226 261.819 19.8856L257.821 20.005C257.822 20.0189 257.823 20.0484 257.823 20.0622C257.823 20.0761 257.824 20.1056 257.825 20.1195C257.825 20.1334 257.826 20.1629 257.826 20.1767C257.827 20.1906 257.828 20.2201 257.828 20.234C257.828 20.2479 257.829 20.2774 257.83 20.2912C257.83 20.3051 257.831 20.3346 257.831 20.3485C257.832 20.3624 257.833 20.3919 257.833 20.4057C257.834 20.4196 257.834 20.4491 257.835 20.463C257.835 20.4769 257.836 20.5064 257.837 20.5202C257.837 20.5341 257.838 20.5636 257.838 20.5775C257.839 20.5914 257.84 20.6209 257.84 20.6347C257.84 20.6486 257.841 20.6781 257.842 20.692C257.842 20.7059 257.843 20.7354 257.843 20.7492C257.844 20.7631 257.845 20.7926 257.845 20.8065C257.846 20.8204 257.846 20.8499 257.847 20.8638C257.847 20.8776 257.848 20.9071 257.849 20.921C257.849 20.9349 257.85 20.9644 257.85 20.9783C257.851 20.9921 257.852 21.0216 257.852 21.0355C257.852 21.0494 257.853 21.0789 257.854 21.0928C257.854 21.1066 257.855 21.1361 257.855 21.15C257.856 21.1639 257.857 21.1934 257.857 21.2073C257.858 21.2211 257.858 21.2506 257.859 21.2645C257.859 21.2784 257.86 21.3079 257.861 21.3218C257.861 21.3356 257.862 21.3651 257.862 21.379C257.863 21.3929 257.864 21.4224 257.864 21.4363C257.864 21.4501 257.865 21.4796 257.866 21.4935C257.866 21.5074 257.867 21.5369 257.867 21.5508C257.868 21.5646 257.869 21.5941 257.869 21.608C257.869 21.6219 257.87 21.6514 257.871 21.6653C257.871 21.6791 257.872 21.7086 257.872 21.7225C257.873 21.7364 257.874 21.7659 257.874 21.7798C257.875 21.7936 257.875 21.8231 257.876 21.837C257.877 21.874 257.888 22.258 257.89 22.295C257.891 22.332 257.902 22.716 257.903 22.753C257.904 22.79 257.916 23.174 257.917 23.211C257.918 23.2481 257.929 23.632 257.931 23.669L261.929 23.5497ZM261.82 19.9453V1.02344H257.82V19.9453H261.82ZM259.82 3.02344H267.449V-0.976562H259.82V3.02344ZM265.449 1.02344V41H269.449V1.02344H265.449ZM292.961 41V43H294.961V41H292.961ZM284.484 41H282.484V43H284.484V41ZM284.484 8.07812H286.484V6.07812H284.484V8.07812ZM273.629 8.07812H271.629V10.0781H273.629V8.07812ZM273.629 1.02344V-0.976562H271.629V1.02344H273.629ZM303.816 1.02344H305.816V-0.976562H303.816V1.02344ZM303.816 8.07812V10.0781H305.816V8.07812H303.816ZM292.961 8.07812V6.07812H290.961V8.07812H292.961ZM292.961 39H284.484V43H292.961V39ZM286.484 41V8.07812H282.484V41H286.484ZM284.484 6.07812H273.629V10.0781H284.484V6.07812ZM275.629 8.07812V1.02344H271.629V8.07812H275.629ZM273.629 3.02344H303.816V-0.976562H273.629V3.02344ZM301.816 1.02344V8.07812H305.816V1.02344H301.816ZM303.816 6.07812H292.961V10.0781H303.816V6.07812ZM290.961 8.07812V41H294.961V8.07812H290.961Z" fill="white"/>
</svg>
