<svg width="500" height="360" viewBox="0 0 500 360" fill="none" xmlns="http://www.w3.org/2000/svg">
<path d="M114.284 107.764C115.342 108.422 116.381 109.093 117.418 109.785C128.377 137.357 134.634 166.572 135.929 196.214C136.089 199.642 136.17 203.064 136.172 206.482C136.267 232.108 132.537 257.606 125.107 282.132C124.715 283.423 124.315 284.709 123.906 285.99C123.613 286.909 123.314 287.837 122.99 288.749C122.646 289.216 122.307 289.675 121.968 290.134C121.944 290.154 121.923 290.188 121.899 290.209C121.762 290.394 121.626 290.579 121.503 290.761C120.917 291.547 120.322 292.329 119.736 293.116L120.23 293.149L121.467 293.228L121.462 293.236C121.046 293.228 120.623 293.214 120.204 293.192C120.052 293.192 119.886 293.196 119.73 293.182C119.592 293.18 119.445 293.172 119.306 293.169C101.466 292.686 83.2092 291.795 66.9751 284.5C49.9831 276.857 35.5694 260.334 36.3019 241.723C36.405 239.286 36.7748 236.867 37.4048 234.51C37.6677 233.526 37.9785 232.558 38.3114 231.593C40.3377 225.685 43.9011 220.422 48.6353 216.347C53.3694 212.272 59.1035 209.531 65.248 208.406C71.3925 207.282 77.7256 207.814 83.5963 209.948C89.4669 212.082 94.6633 215.742 98.651 220.55C93.7813 201.412 72.8758 191.646 54.0468 185.709C35.2039 179.775 14.004 173.568 4.3773 156.325C-0.997443 146.729 -1.12686 135.549 2.38024 125.225C2.48701 124.917 2.59914 124.6 2.7197 124.288C7.13669 112.141 15.9745 102.108 27.4671 96.1935C49.0002 85.5322 75.1655 89.2939 97.2289 98.8095C103.132 101.359 108.833 104.352 114.284 107.764Z" fill="#F2F2F2"/>
<path d="M52.566 231.672C69.4911 233.228 85.4664 240.189 98.1305 251.525C108.916 261.287 116.875 273.773 121.171 287.672C121.421 288.467 121.649 289.261 121.863 290.058C122.29 289.244 122.706 288.411 123.116 287.587C123.381 287.059 123.65 286.523 123.906 285.99C123.613 286.909 123.314 287.837 122.99 288.749C122.646 289.216 122.307 289.675 121.968 290.134C121.944 290.154 121.923 290.188 121.899 290.209C121.763 290.394 121.626 290.579 121.503 290.761C120.917 291.547 120.322 292.33 119.736 293.116L120.23 293.149L121.467 293.228L121.462 293.236C121.047 293.228 120.623 293.214 120.204 293.192C120.052 293.192 119.886 293.196 119.73 293.183C119.679 292.941 119.615 292.703 119.55 292.465C115.165 274.513 104.431 258.756 89.3316 248.103C74.2321 237.45 55.7874 232.622 37.405 234.51C37.6679 233.526 37.9787 232.558 38.3116 231.593C43.0563 231.205 47.8258 231.232 52.566 231.672Z" fill="white"/>
<path d="M108.8 160.885C115.591 165.973 121.603 172.026 126.644 178.852C129.271 182.491 131.553 186.366 133.46 190.428C134.365 192.312 135.188 194.253 135.93 196.214C136.089 199.642 136.17 203.064 136.172 206.482C135.543 203.898 134.776 201.35 133.875 198.849C133.406 197.475 132.885 196.129 132.332 194.798C126.126 179.891 114.882 168.121 101.621 159.172C87.4118 149.598 71.3922 142.41 55.1572 137.065C38.5191 131.562 21.2691 128.119 3.79325 126.814C3.39858 126.782 3.03144 126.599 2.76828 126.303C2.50513 126.007 2.36624 125.621 2.38052 125.225C2.3671 124.881 2.4889 124.544 2.71998 124.288C2.84275 124.168 2.99199 124.078 3.15576 124.026C3.31952 123.974 3.49323 123.961 3.6629 123.988C5.81949 124.149 7.9705 124.32 10.1214 124.548C28.0179 126.391 45.6157 130.453 62.5096 136.64C78.8181 142.591 94.9583 150.308 108.8 160.885Z" fill="white"/>
<path d="M20.1255 78.4418C23.4292 78.4418 26.1073 75.7637 26.1073 72.4601C26.1073 69.1564 23.4292 66.4783 20.1255 66.4783C16.8219 66.4783 14.1437 69.1564 14.1437 72.4601C14.1437 75.7637 16.8219 78.4418 20.1255 78.4418Z" fill="#F2F2F2"/>
<path d="M387.609 127.682H116.071V358.962H387.609V127.682Z" fill="white"/>
<path d="M388.398 359.752H115.282V126.893H388.398V359.752ZM116.861 358.173H386.819V128.471H116.861V358.173Z" fill="#3F3D56"/>
<path d="M285.782 172.675H217.898V358.962H285.782V172.675Z" fill="#6C63FF"/>
<path d="M285.782 172.675H217.898V358.962H285.782V172.675Z" fill="#6C63FF"/>
<path opacity="0.2" d="M116.861 144.653V182.177L387.609 199.513L386.811 153.211L116.861 144.653Z" fill="#2B2B2B"/>
<path d="M403.396 106.37H100.284V172.675H403.396V106.37Z" fill="white"/>
<path d="M404.185 173.464H99.4949V105.58H404.185V173.464ZM101.074 171.886H402.606V107.159H101.074V171.886Z" fill="#3F3D56"/>
<path d="M285.782 100.055H217.898V171.886H285.782V100.055Z" fill="#6C63FF"/>
<path d="M244.572 37.4245C262.491 63.9875 245.608 106.71 245.608 106.71C245.608 106.71 199.671 106.366 181.752 79.8029C163.832 53.2399 180.716 10.5171 180.716 10.5171C180.716 10.5171 226.652 10.8615 244.572 37.4245Z" fill="#6C63FF"/>
<path d="M252.794 37.4245C234.874 63.9875 251.758 106.71 251.758 106.71C251.758 106.71 297.694 106.366 315.614 79.8029C333.533 53.2399 316.65 10.5171 316.65 10.5171C316.65 10.5171 270.713 10.8615 252.794 37.4245Z" fill="#6C63FF"/>
<path d="M204.479 57.4295C208.402 57.4295 211.583 54.2489 211.583 50.3254C211.583 46.4018 208.402 43.2212 204.479 43.2212C200.555 43.2212 197.375 46.4018 197.375 50.3254C197.375 54.2489 200.555 57.4295 204.479 57.4295Z" fill="#3F3D56"/>
<path d="M247.104 129.261C251.027 129.261 254.208 126.08 254.208 122.157C254.208 118.233 251.027 115.052 247.104 115.052C243.18 115.052 240 118.233 240 122.157C240 126.08 243.18 129.261 247.104 129.261Z" fill="#3F3D56"/>
<path d="M247.104 284.763C251.027 284.763 254.208 281.583 254.208 277.659C254.208 273.736 251.027 270.555 247.104 270.555C243.18 270.555 240 273.736 240 277.659C240 281.583 243.18 284.763 247.104 284.763Z" fill="#3F3D56"/>
<path d="M223.423 81.1102C226.039 81.1102 228.159 78.9897 228.159 76.3741C228.159 73.7584 226.039 71.6379 223.423 71.6379C220.808 71.6379 218.687 73.7584 218.687 76.3741C218.687 78.9897 220.808 81.1102 223.423 81.1102Z" fill="#3F3D56"/>
<path d="M294.465 40.8532C297.081 40.8532 299.201 38.7328 299.201 36.1171C299.201 33.5014 297.081 31.381 294.465 31.381C291.849 31.381 289.729 33.5014 289.729 36.1171C289.729 38.7328 291.849 40.8532 294.465 40.8532Z" fill="#3F3D56"/>
<path d="M263.68 152.152C266.296 152.152 268.416 150.031 268.416 147.416C268.416 144.8 266.296 142.68 263.68 142.68C261.065 142.68 258.944 144.8 258.944 147.416C258.944 150.031 261.065 152.152 263.68 152.152Z" fill="#3F3D56"/>
<path d="M235.264 213.721C237.879 213.721 240 211.601 240 208.985C240 206.37 237.879 204.249 235.264 204.249C232.648 204.249 230.527 206.37 230.527 208.985C230.527 211.601 232.648 213.721 235.264 213.721Z" fill="#3F3D56"/>
<path d="M259.734 235.034C262.349 235.034 264.47 232.914 264.47 230.298C264.47 227.682 262.349 225.562 259.734 225.562C257.118 225.562 254.997 227.682 254.997 230.298C254.997 232.914 257.118 235.034 259.734 235.034Z" fill="#3F3D56"/>
<path d="M254.208 324.231C256.824 324.231 258.944 322.11 258.944 319.495C258.944 316.879 256.824 314.759 254.208 314.759C251.592 314.759 249.472 316.879 249.472 319.495C249.472 322.11 251.592 324.231 254.208 324.231Z" fill="#3F3D56"/>
<path d="M491.18 236.271H346.7V359.332H491.18V236.271Z" fill="white"/>
<path d="M491.6 359.752H346.28V235.851H491.6V359.752ZM347.12 358.912H490.76V236.691H347.12V358.912Z" fill="#3F3D56"/>
<path d="M437 260.211H400.88V359.332H437V260.211Z" fill="#6C63FF"/>
<path d="M437 260.211H400.88V359.332H437V260.211Z" fill="#6C63FF"/>
<path opacity="0.2" d="M347.12 245.302V265.268L491.18 274.491L490.756 249.855L347.12 245.302Z" fill="#2B2B2B"/>
<path d="M499.58 224.931H338.3V260.211H499.58V224.931Z" fill="white"/>
<path d="M500 260.631H337.88V224.511H500V260.631ZM338.72 259.791H499.16V225.351H338.72V259.791Z" fill="#3F3D56"/>
<path d="M437 221.571H400.88V259.791H437V221.571Z" fill="#6C63FF"/>
<path d="M415.072 188.247C424.607 202.381 415.624 225.113 415.624 225.113C415.624 225.113 391.182 224.929 381.647 210.796C372.112 196.662 381.096 173.93 381.096 173.93C381.096 173.93 405.538 174.113 415.072 188.247Z" fill="#6C63FF"/>
<path d="M419.447 188.247C409.913 202.381 418.896 225.113 418.896 225.113C418.896 225.113 443.338 224.929 452.873 210.796C462.407 196.662 453.424 173.93 453.424 173.93C453.424 173.93 428.982 174.113 419.447 188.247Z" fill="#6C63FF"/>
<path d="M393.74 198.891C395.827 198.891 397.52 197.199 397.52 195.111C397.52 193.024 395.827 191.331 393.74 191.331C391.652 191.331 389.96 193.024 389.96 195.111C389.96 197.199 391.652 198.891 393.74 198.891Z" fill="#3F3D56"/>
<path d="M416.42 237.111C418.507 237.111 420.2 235.419 420.2 233.331C420.2 231.244 418.507 229.551 416.42 229.551C414.332 229.551 412.64 231.244 412.64 233.331C412.64 235.419 414.332 237.111 416.42 237.111Z" fill="#3F3D56"/>
<path d="M416.42 319.852C418.507 319.852 420.2 318.159 420.2 316.072C420.2 313.984 418.507 312.292 416.42 312.292C414.332 312.292 412.64 313.984 412.64 316.072C412.64 318.159 414.332 319.852 416.42 319.852Z" fill="#3F3D56"/>
<path d="M403.82 211.491C405.212 211.491 406.34 210.363 406.34 208.971C406.34 207.58 405.212 206.451 403.82 206.451C402.428 206.451 401.3 207.58 401.3 208.971C401.3 210.363 402.428 211.491 403.82 211.491Z" fill="#3F3D56"/>
<path d="M441.62 190.071C443.012 190.071 444.14 188.943 444.14 187.551C444.14 186.159 443.012 185.031 441.62 185.031C440.228 185.031 439.1 186.159 439.1 187.551C439.1 188.943 440.228 190.071 441.62 190.071Z" fill="#3F3D56"/>
<path d="M425.24 249.291C426.632 249.291 427.76 248.163 427.76 246.771C427.76 245.38 426.632 244.251 425.24 244.251C423.848 244.251 422.72 245.38 422.72 246.771C422.72 248.163 423.848 249.291 425.24 249.291Z" fill="#3F3D56"/>
<path d="M410.12 282.051C411.512 282.051 412.64 280.923 412.64 279.531C412.64 278.14 411.512 277.011 410.12 277.011C408.728 277.011 407.6 278.14 407.6 279.531C407.6 280.923 408.728 282.051 410.12 282.051Z" fill="#3F3D56"/>
<path d="M423.14 293.392C424.532 293.392 425.66 292.263 425.66 290.872C425.66 289.48 424.532 288.352 423.14 288.352C421.748 288.352 420.62 289.48 420.62 290.872C420.62 292.263 421.748 293.392 423.14 293.392Z" fill="#3F3D56"/>
<path d="M420.2 340.852C421.591 340.852 422.72 339.723 422.72 338.332C422.72 336.94 421.591 335.812 420.2 335.812C418.808 335.812 417.68 336.94 417.68 338.332C417.68 339.723 418.808 340.852 420.2 340.852Z" fill="#3F3D56"/>
<path d="M242.577 302.635C243.84 299.973 237.987 294.553 229.505 290.53C221.024 286.507 213.124 285.405 211.861 288.068C210.598 290.73 216.45 296.15 224.932 300.173C233.414 304.196 241.314 305.298 242.577 302.635Z" fill="#2F2E41"/>
<path d="M312.579 330.061C314.838 328.169 311.785 320.801 305.758 313.603C299.732 306.405 293.015 302.104 290.755 303.996C288.495 305.887 291.549 313.256 297.575 320.454C303.602 327.652 310.319 331.953 312.579 330.061Z" fill="#2F2E41"/>
<path d="M265.509 345.121C284.284 345.121 299.504 329.901 299.504 311.126C299.504 292.351 284.284 277.13 265.509 277.13C246.734 277.13 231.513 292.351 231.513 311.126C231.513 329.901 246.734 345.121 265.509 345.121Z" fill="#2F2E41"/>
<path d="M279.898 337.805H269.57V356.309H279.898V337.805Z" fill="#2F2E41"/>
<path d="M259.242 337.805H248.915V356.309H259.242V337.805Z" fill="#2F2E41"/>
<path d="M271.291 359.752C276.044 359.752 279.898 358.307 279.898 356.524C279.898 354.742 276.044 353.297 271.291 353.297C266.538 353.297 262.685 354.742 262.685 356.524C262.685 358.307 266.538 359.752 271.291 359.752Z" fill="#2F2E41"/>
<path d="M250.636 359.321C255.389 359.321 259.242 357.876 259.242 356.094C259.242 354.312 255.389 352.867 250.636 352.867C245.883 352.867 242.03 354.312 242.03 356.094C242.03 357.876 245.883 359.321 250.636 359.321Z" fill="#2F2E41"/>
<path d="M254.835 268.392C257.87 256.168 271.269 248.974 284.763 252.324C298.256 255.675 306.734 268.301 303.698 280.526C300.663 292.75 290.592 292.79 277.098 289.439C263.605 286.089 251.799 280.617 254.835 268.392Z" fill="#E6E6E6"/>
<path d="M260.426 315.286C266.686 315.286 271.761 310.212 271.761 303.952C271.761 297.693 266.686 292.618 260.426 292.618C254.167 292.618 249.092 297.693 249.092 303.952C249.092 310.212 254.167 315.286 260.426 315.286Z" fill="white"/>
<path d="M255.768 303.668C257.855 303.668 259.546 301.976 259.546 299.89C259.546 297.803 257.855 296.112 255.768 296.112C253.682 296.112 251.99 297.803 251.99 299.89C251.99 301.976 253.682 303.668 255.768 303.668Z" fill="#3F3D56"/>
<path d="M267.536 327.566C267.714 328.542 267.698 329.544 267.488 330.514C267.279 331.484 266.881 332.403 266.316 333.219C265.751 334.035 265.032 334.732 264.198 335.27C263.364 335.807 262.432 336.176 261.456 336.353C260.48 336.531 259.478 336.515 258.508 336.305C257.538 336.096 256.619 335.698 255.803 335.133C254.987 334.568 254.29 333.848 253.752 333.015C253.215 332.181 252.846 331.249 252.669 330.273L252.666 330.258C251.923 326.152 255.098 324.699 259.204 323.955C263.31 323.212 266.793 323.46 267.536 327.566Z" fill="white"/>
<path d="M334.24 55.096C342.916 51.5123 349.038 46.399 347.913 43.6751C346.788 40.9513 338.842 41.6484 330.166 45.2321C321.489 48.8159 315.367 53.9292 316.492 56.653C317.617 59.3769 325.563 58.6798 334.24 55.096Z" fill="#2F2E41"/>
<path d="M417.563 78.5588C419.822 76.6669 416.769 69.2983 410.742 62.1005C404.716 54.9027 397.998 50.6015 395.739 52.4934C393.479 54.3853 396.533 61.7539 402.559 68.9517C408.586 76.1494 415.303 80.4507 417.563 78.5588Z" fill="#2F2E41"/>
<path d="M370.493 93.6187C389.268 93.6187 404.488 78.3985 404.488 59.6234C404.488 40.8483 389.268 25.6281 370.493 25.6281C351.718 25.6281 336.497 40.8483 336.497 59.6234C336.497 78.3985 351.718 93.6187 370.493 93.6187Z" fill="#2F2E41"/>
<path d="M384.882 86.3032H374.554V104.807H384.882V86.3032Z" fill="#2F2E41"/>
<path d="M364.226 86.3032H353.899V104.807H364.226V86.3032Z" fill="#2F2E41"/>
<path d="M376.275 108.249C381.028 108.249 384.882 106.805 384.882 105.022C384.882 103.24 381.028 101.795 376.275 101.795C371.522 101.795 367.669 103.24 367.669 105.022C367.669 106.805 371.522 108.249 376.275 108.249Z" fill="#2F2E41"/>
<path d="M355.62 107.819C360.373 107.819 364.226 106.374 364.226 104.592C364.226 102.809 360.373 101.364 355.62 101.364C350.867 101.364 347.013 102.809 347.013 104.592C347.013 106.374 350.867 107.819 355.62 107.819Z" fill="#2F2E41"/>
<path d="M359.818 16.8903C362.854 4.66557 376.253 -2.52841 389.747 0.822074C403.24 4.17256 411.718 16.7988 408.682 29.0235C405.647 41.2482 395.576 41.2877 382.082 37.9372C368.589 34.5866 356.783 29.115 359.818 16.8903Z" fill="#6C63FF"/>
<path d="M365.41 63.7842C371.67 63.7842 376.744 58.7097 376.744 52.4501C376.744 46.1905 371.67 41.1161 365.41 41.1161C359.151 41.1161 354.076 46.1905 354.076 52.4501C354.076 58.7097 359.151 63.7842 365.41 63.7842Z" fill="white"/>
<path d="M360.752 57.6909C362.839 57.6909 364.53 55.9994 364.53 53.9129C364.53 51.8264 362.839 50.1349 360.752 50.1349C358.666 50.1349 356.974 51.8264 356.974 53.9129C356.974 55.9994 358.666 57.6909 360.752 57.6909Z" fill="#3F3D56"/>
<path d="M372.52 76.0639C372.879 78.0354 372.44 80.0689 371.3 81.7168C370.16 83.3647 368.411 84.4921 366.44 84.851C364.468 85.2099 362.435 84.7709 360.787 83.6306C359.139 82.4902 358.012 80.742 357.653 78.7704L357.65 78.7558C356.907 74.6495 360.081 73.1964 364.188 72.453C368.294 71.7097 371.777 71.9576 372.52 76.0639Z" fill="white"/>
<path d="M79.6335 345.121C98.4086 345.121 113.629 329.901 113.629 311.125C113.629 292.35 98.4086 277.13 79.6335 277.13C60.8584 277.13 45.6382 292.35 45.6382 311.125C45.6382 329.901 60.8584 345.121 79.6335 345.121Z" fill="#2F2E41"/>
<path d="M74.4697 337.805H64.142V356.309H74.4697V337.805Z" fill="#2F2E41"/>
<path d="M95.1251 337.805H84.7974V356.309H95.1251V337.805Z" fill="#2F2E41"/>
<path d="M72.7484 359.752C77.5016 359.752 81.3548 358.307 81.3548 356.524C81.3548 354.742 77.5016 353.297 72.7484 353.297C67.9952 353.297 64.142 354.742 64.142 356.524C64.142 358.307 67.9952 359.752 72.7484 359.752Z" fill="#2F2E41"/>
<path d="M93.4038 359.321C98.157 359.321 102.01 357.876 102.01 356.094C102.01 354.312 98.157 352.867 93.4038 352.867C88.6506 352.867 84.7974 354.312 84.7974 356.094C84.7974 357.876 88.6506 359.321 93.4038 359.321Z" fill="#2F2E41"/>
<path d="M46.6569 279.511C43.912 267.218 52.6865 254.796 66.2555 251.766C79.8245 248.736 93.0495 256.246 95.7944 268.539C98.5394 280.832 89.5467 285.366 75.9778 288.396C62.4089 291.426 49.4019 291.804 46.6569 279.511Z" fill="#6C63FF"/>
<path d="M116.267 296.27C123.629 288.902 127.722 281.056 125.409 278.744C123.096 276.433 115.253 280.533 107.891 287.9C100.528 295.268 96.4353 303.115 98.7483 305.426C101.061 307.737 108.905 303.638 116.267 296.27Z" fill="#2F2E41"/>
<path d="M52.2321 307.794C54.5452 305.483 50.4519 297.637 43.0897 290.269C35.7274 282.901 27.884 278.801 25.571 281.113C23.2579 283.424 27.3512 291.27 34.7135 298.638C42.0757 306.006 49.9191 310.106 52.2321 307.794Z" fill="#2F2E41"/>
<path d="M78.2032 317.926C84.62 317.926 89.8218 312.725 89.8218 306.308C89.8218 299.891 84.62 294.689 78.2032 294.689C71.7864 294.689 66.5845 299.891 66.5845 306.308C66.5845 312.725 71.7864 317.926 78.2032 317.926Z" fill="white"/>
<path d="M78.2032 310.181C80.3422 310.181 82.0761 308.447 82.0761 306.308C82.0761 304.169 80.3422 302.435 78.2032 302.435C76.0643 302.435 74.3303 304.169 74.3303 306.308C74.3303 308.447 76.0643 310.181 78.2032 310.181Z" fill="#3F3D56"/>
<path d="M87.4264 327.796C87.6041 328.772 87.5878 329.774 87.3784 330.744C87.169 331.714 86.7706 332.633 86.206 333.449C85.6414 334.265 84.9215 334.962 84.0876 335.499C83.2537 336.037 82.3221 336.405 81.3458 336.583C80.3696 336.761 79.368 336.745 78.398 336.535C77.4281 336.326 76.5089 335.927 75.6929 335.363C74.877 334.798 74.1802 334.078 73.6424 333.244C73.1047 332.411 72.7364 331.479 72.5587 330.503L72.5561 330.488C71.8127 326.382 74.9876 324.929 79.0939 324.185C83.2002 323.442 86.683 323.69 87.4264 327.796Z" fill="white"/>
</svg>
